<?xml version="1.0" encoding="UTF-8" standalone="no"?>
<!-- Created with Inkscape (http://www.inkscape.org/) -->

<svg
   width="210mm"
   height="297mm"
   viewBox="0 0 793.70081 1122.5197"
   version="1.1"
   id="svg1"
   xml:space="preserve"
   inkscape:version="1.4.2 (f4327f4, 2025-05-13)"
   sodipodi:docname="ciricle-with-t-right.svg"
   xmlns:inkscape="http://www.inkscape.org/namespaces/inkscape"
   xmlns:sodipodi="http://sodipodi.sourceforge.net/DTD/sodipodi-0.dtd"
   xmlns="http://www.w3.org/2000/svg"
   xmlns:svg="http://www.w3.org/2000/svg"><sodipodi:namedview
     id="namedview1"
     pagecolor="#ffffff"
     bordercolor="#000000"
     borderopacity="0.25"
     inkscape:showpageshadow="2"
     inkscape:pageopacity="0.0"
     inkscape:pagecheckerboard="0"
     inkscape:deskcolor="#d1d1d1"
     inkscape:document-units="mm"
     inkscape:zoom="0.58772299"
     inkscape:cx="530.86234"
     inkscape:cy="637.20495"
     inkscape:window-width="1920"
     inkscape:window-height="1177"
     inkscape:window-x="-8"
     inkscape:window-y="-8"
     inkscape:window-maximized="1"
     inkscape:current-layer="layer1" /><defs
     id="defs1" /><g
     inkscape:label="Layer 1"
     inkscape:groupmode="layer"
     id="layer1"><path
       style="fill:#000000"
       d="m 330.10103,952.27012 c -0.008,-1.64091 -0.22583,-7.8167 -0.48436,-13.72398 -0.36041,-8.23511 -0.75076,-10.96419 -1.67343,-11.69942 -1.00609,-0.80172 -1.05754,-1.5404 -0.3138,-4.50606 1.2978,-5.17496 0.39669,-10.45756 -1.96843,-11.53956 -2.56743,-1.17456 -2.36755,-2.99149 0.49247,-4.47648 l 2.37712,-1.23425 v -18.18542 c 0,-17.51632 -0.0583,-18.20073 -1.58475,-18.60152 -0.87161,-0.22886 -1.58474,-0.97405 -1.58474,-1.65599 0,-0.68193 0.71313,-1.62309 1.58474,-2.09145 1.75928,-0.94537 2.17677,-3.97797 0.54764,-3.97797 -0.57042,0 -1.72453,-0.50469 -2.5647,-1.12153 -1.45371,-1.0673 -1.46103,-1.19536 -0.15144,-2.64832 0.75687,-0.83974 1.38406,-2.03563 1.39375,-2.65754 0.01,-0.62191 0.7149,-2.02579 1.56713,-3.11973 1.34919,-1.73185 1.54975,-3.27463 1.55143,-11.93389 10e-4,-5.4697 -0.41313,-12.45103 -0.92042,-15.51407 -0.50729,-3.06303 -0.8595,-7.09072 -0.78268,-8.95042 0.0768,-1.8597 0.20457,-4.72383 0.28391,-6.36474 0.0793,-1.64091 -0.12915,-4.08843 -0.46329,-5.43892 -0.44099,-1.78233 -0.27406,-2.79029 0.60894,-3.67687 1.68096,-1.68779 2.88047,-32.53914 1.33769,-34.40562 -0.64491,-0.78023 -0.81892,-2.27042 -0.49081,-4.20322 1.04825,-6.17501 0.44959,-11.08771 -1.95971,-16.08163 -2.83701,-5.88047 -2.90363,-7.708 -0.40495,-11.10854 1.57421,-2.14239 1.88434,-3.38822 1.68386,-6.76417 -0.13516,-2.27596 -0.77671,-5.19148 -1.42566,-6.47893 -1.89976,-3.76889 -2.32084,-9.80279 -0.99112,-14.20226 1.56845,-5.18929 1.49713,-8.70409 -0.20622,-10.16207 -1.65299,-1.41489 -11.06405,-4.62886 -13.55408,-4.62886 -0.96517,0 -2.6046,-0.55904 -3.64319,-1.24231 -1.18197,-0.7776 -3.17224,-1.14961 -5.32064,-0.99449 l -3.4323,0.24782 -0.23638,4.99085 c -0.17381,3.66972 0.0854,5.31389 0.97909,6.21125 1.08848,1.0929 1.08966,1.41323 0.0113,3.06576 -0.92264,1.41385 -1.17257,3.96109 -1.06887,10.89399 0.0744,4.97676 -0.13756,13.07634 -0.4711,17.99908 -0.54131,7.98901 -0.46783,8.95042 0.68405,8.95042 1.63074,0 1.71443,2.84879 0.10195,3.47008 -0.92865,0.3578 -1.1944,1.98572 -1.21525,7.44435 -0.0374,9.80232 -1.35343,23.40885 -2.362,24.42152 -1.65739,1.66412 -2.46257,-1.40678 -2.10586,-8.03156 0.53181,-9.87681 -0.054,-13.4298 -2.39056,-14.49873 -2.38471,-1.09096 -2.16077,-3.55003 0.35612,-3.91057 1.41957,-0.20336 1.77475,-0.76859 1.77475,-2.82436 0,-1.41357 -0.44571,-3.04449 -0.99047,-3.62428 -0.79237,-0.84333 -0.79237,-1.12709 0,-1.41881 1.24656,-0.45893 1.31967,-6.8847 0.10063,-8.84463 -0.68657,-1.10383 -0.59282,-2.00736 0.41036,-3.95518 1.47168,-2.85748 0.75258,-4.88196 -2.19594,-6.18224 -2.65278,-1.16986 -2.63597,-4.14889 0.0291,-5.16628 1.21981,-0.46566 2.48706,-1.27177 2.81611,-1.79137 1.07115,-1.69142 0.69105,-6.13962 -0.56602,-6.62396 -0.65371,-0.25187 -1.18856,-0.9679 -1.18856,-1.59118 0,-0.62329 0.53485,-1.33932 1.18856,-1.59119 1.72182,-0.66341 1.72182,-12.6415 0,-13.3049 -0.71659,-0.2761 -1.19547,-1.49461 -1.20596,-3.0686 -0.0186,-2.79087 -2.41487,-8.8218 -3.86196,-9.71978 -0.48118,-0.2986 -0.87488,-1.15809 -0.87488,-1.90997 0,-0.75189 -1.0697,-2.30953 -2.37711,-3.46143 -1.30742,-1.1519 -2.37712,-2.66369 -2.37712,-3.35954 0,-1.58215 3.00219,-1.64324 5.02774,-0.1023 1.26345,0.96116 1.82593,0.93071 4.14047,-0.22421 3.17264,-1.58308 3.47188,-3.60841 0.93454,-6.32523 l -1.78284,-1.90894 1.6773,-1.36643 c 1.37415,-1.11945 1.71173,-2.36547 1.86775,-6.89385 0.10474,-3.04009 0.15191,-6.3854 0.10481,-7.43402 -0.094,-2.0926 1.1738,-4.06036 2.616,-4.06036 0.63404,0 0.98135,2.78103 1.11364,8.91718 0.12342,5.72422 0.52207,9.12186 1.11335,9.48877 0.50661,0.31438 0.95061,2.11942 0.98667,4.01121 0.0407,2.13522 1.03521,5.45714 2.62247,8.75974 1.4063,2.92606 2.56431,5.61119 2.57336,5.96695 0.009,0.35575 2.2034,2.04724 4.87634,3.75886 6.67112,4.27186 11.10773,4.70538 15.9533,1.55885 3.35934,-2.18144 3.53976,-2.49499 4.01365,-6.97548 0.27291,-2.58025 0.49394,-7.77149 0.49119,-11.5361 -0.005,-6.76773 -0.0317,-6.85998 -2.37712,-8.20001 -3.0159,-1.72311 -3.0159,-3.52226 0,-5.24537 2.31357,-1.32184 2.37223,-1.50743 2.37712,-7.52113 0.004,-4.95259 -0.22886,-6.16584 -1.18355,-6.16584 -1.86161,0 -1.81707,-3.50823 0.0715,-5.6318 0.67179,-0.75537 1.11705,-2.98619 1.11705,-5.59651 0,-3.97905 -0.19794,-4.45789 -2.37712,-5.75039 -1.30742,-0.77545 -2.37712,-1.87291 -2.37712,-2.4388 0,-0.73894 -2.84709,-1.29153 -10.10275,-1.96084 -10.73648,-0.9904 -13.66844,-1.52 -13.66844,-2.46891 0,-0.32421 2.20162,-0.82051 4.89248,-1.10291 2.81386,-0.2953 5.51032,-1.07485 6.34668,-1.83482 1.24989,-1.13573 1.72952,-1.17345 3.4137,-0.26844 4.55808,2.44933 13.05745,-5.1284 11.92968,-10.63608 -1.27545,-6.22894 -1.34482,-7.93812 -0.46462,-11.44789 0.51702,-2.06162 1.33654,-4.22809 1.82115,-4.81439 0.48462,-0.5863 1.0218,-4.97314 1.19375,-9.74854 0.28305,-7.86125 0.15668,-8.8816 -1.33594,-10.78688 -1.99393,-2.54516 -2.19331,-7.07373 -0.35688,-8.10563 1.1352,-0.63787 1.01521,-1.04711 -0.99047,-3.37802 -4.08814,-4.75105 -5.73875,-6.03327 -9.04831,-7.02887 -3.56311,-1.07187 -7.53731,-0.57104 -8.14799,1.02682 -0.2132,0.55785 -3.07077,2.22658 -6.35016,3.70831 -5.65874,2.55678 -5.9401,2.80664 -5.52231,4.90406 0.37906,1.90301 0.18744,2.21003 -1.37928,2.21003 -1.00072,0 -2.44601,-0.56929 -3.21175,-1.2651 -0.90463,-0.822 -2.00353,-1.0703 -3.13753,-0.70892 -1.98427,0.63234 -19.08496,17.85107 -18.566,18.69416 0.18624,0.30258 -0.70497,2.20241 -1.98047,4.22185 -4.08623,6.46949 -4.74623,8.26811 -6.8329,18.62081 -1.12651,5.58897 -2.21989,10.89958 -2.42974,11.80134 -0.21624,0.92923 0.16101,2.09168 0.87073,2.6831 1.58449,1.32035 1.61988,3.71918 0.0637,4.31876 -1.47293,0.56752 -1.54336,3.60471 -0.13221,5.70112 1.77978,2.64405 3.87126,11.53025 3.35903,14.27175 -0.59648,3.19246 1.91545,9.22422 4.78539,11.49089 1.998,1.57802 2.07073,1.57996 4.14211,0.11078 2.82129,-2.00108 5.67407,-2.80022 5.67407,-1.58945 0,0.51869 -1.0697,2.16635 -2.37712,3.66146 -2.95361,3.37766 -2.98438,5.36382 -0.15282,9.8665 3.05635,4.86015 3.57856,6.46314 2.35868,7.24031 -1.58267,1.00832 -1.86853,0.88188 -5.87238,-2.59751 -3.47372,-3.01871 -4.02396,-3.23408 -7.15992,-2.8025 -1.86837,0.25713 -5.30667,1.54962 -7.64068,2.8722 -2.33401,1.32259 -4.66053,2.4047 -5.17004,2.4047 -1.87466,0 -0.85206,-2.38451 1.55959,-3.63669 4.87331,-2.53033 8.2628,-7.47772 6.9053,-10.07918 -0.49408,-0.94681 -0.32604,-1.99141 0.53179,-3.30595 1.14649,-1.75687 1.14243,-2.18422 -0.0473,-4.98056 -1.9725,-4.63623 -4.82483,-13.64148 -5.96928,-18.84589 -0.79045,-3.59461 -1.4335,-4.80578 -2.83572,-5.34107 -0.9974,-0.38076 -2.26698,-1.42145 -2.82129,-2.31265 -0.72843,-1.17113 -1.8478,-1.62037 -4.03751,-1.62037 -3.75686,0 -12.22606,-3.71199 -11.08446,-4.85824 0.43559,-0.43735 3.63091,-1.08255 7.10073,-1.43376 3.67178,-0.37166 7.18323,-1.21389 8.40089,-2.01497 2.25482,-1.48342 6.12507,-7.50224 6.12507,-9.5254 0,-2.36091 9.122,-22.17593 11.29131,-24.52726 1.19847,-1.29902 2.17903,-2.98709 2.17903,-3.75125 0,-0.76417 0.8829,-2.60589 1.962,-4.09273 1.07911,-1.48683 2.71931,-4.31441 3.64489,-6.2835 6.0192,-12.80525 6.22016,-12.99258 15.85066,-14.77602 6.05529,-1.12135 6.94786,-1.51262 8.16325,-3.57848 1.72917,-2.93915 4.03616,-4.2344 5.78834,-3.24985 2.27373,1.27762 11.35857,-3.06689 12.46455,-5.96075 0.24764,-0.64796 1.07668,-1.11396 1.84231,-1.03556 2.73825,0.28039 3.25338,-0.0858 4.88705,-3.47425 2.09709,-4.34961 2.44733,-15.12026 0.46687,-14.3572 -1.52162,0.58628 -1.50347,-0.6117 0.0653,-4.3125 0.96216,-2.26975 1.13539,-4.37461 0.74457,-9.04715 -0.33198,-3.96915 -0.21678,-6.27076 0.33087,-6.6106 1.24975,-0.77553 1.02462,-5.10405 -0.48551,-9.33464 -1.14787,-3.21574 -1.1903,-4.17154 -0.30475,-6.86569 0.88743,-2.69987 0.84087,-3.69787 -0.3389,-7.26425 -1.64727,-4.97963 -1.08824,-12.32374 1.0398,-13.6599 1.16165,-0.72939 1.32314,-2.62196 1.30491,-15.29287 -0.0178,-12.37798 -0.21751,-14.74244 -1.38665,-16.41841 -1.84707,-2.64777 -1.71767,-4.54122 0.38764,-5.67253 l 1.75348,-0.94225 -1.75348,-0.65129 c -2.15043,-0.79873 -2.30401,-3.09376 -0.24324,-3.63485 2.30929,-0.60635 2.6129,-4.2272 1.99301,-23.76842 -0.43831,-13.81727 -0.80257,-17.8629 -1.63731,-18.18452 -0.79414,-0.30598 -1.07357,-2.2944 -1.07357,-7.63955 v -7.2259 l -2.9714,-1.24221 c -5.59146,-2.33754 -5.53527,-4.38137 0.19809,-7.2047 2.39693,-1.18034 4.35805,-2.41828 4.35805,-2.75097 0,-0.33268 -0.53184,-0.39997 -1.18188,-0.14951 -2.00007,0.77062 -2.35089,-2.00348 -0.50311,-3.97834 0.92675,-0.99048 1.68499,-2.18149 1.68499,-2.64668 0,-0.46519 0.53485,-1.29149 1.18856,-1.83622 0.9087,-0.75722 1.18856,-2.82822 1.18856,-8.79533 0,-6.95417 -0.1632,-7.85691 -1.49727,-8.28205 -2.11567,-0.67421 -2.58338,-4.04908 -0.78733,-5.6811 1.28382,-1.16656 1.41459,-2.37627 1.14167,-10.56161 -0.16952,-5.08428 -0.56032,-12.16226 -0.86846,-15.72884 -0.45064,-5.21613 -0.3087,-6.99097 0.72558,-9.07266 0.87175,-1.75457 1.28581,-4.68658 1.28581,-9.10496 0,-5.5066 -0.2457,-6.74025 -1.58474,-7.957 -2.43791,-2.21524 -2.22127,-8.63299 0.37289,-11.04695 1.95681,-1.82088 1.95752,-1.82732 1.65745,-15.07828 -0.23515,-10.38394 -0.0809,-13.25663 0.71198,-13.25663 1.37217,0 1.99277,4.37747 2.00319,14.12957 0.008,7.17175 0.2011,8.328 1.59347,9.52503 1.16351,1.00028 1.58475,2.34695 1.58475,5.06641 0,2.03719 0.57753,5.09027 1.2834,6.78462 1.63517,3.92501 1.08935,10.23787 -1.64881,19.0697 -1.98581,6.40518 -1.99752,6.6186 -2.05098,37.39288 -0.0673,38.75079 -0.1862,36.12228 1.63358,36.12228 0.81491,0 1.69649,0.34903 1.95908,0.77563 0.27269,0.44302 2.02641,0.56245 4.0896,0.27851 3.21687,-0.44271 3.58149,-0.33709 3.33172,0.96513 -0.19781,1.03135 -1.56432,1.78393 -4.63712,2.55384 -7.22296,1.80975 -7.07895,1.26338 -6.78289,25.73266 0.18899,15.62047 0.52976,21.65845 1.30215,23.07258 0.64693,1.18441 1.06105,4.76494 1.08513,9.38224 0.0371,7.10637 -0.0519,7.50845 -1.84366,8.32818 l -1.88261,0.8613 0.45793,14.74403 c 0.4962,15.97618 0.92488,19.11978 2.60729,19.11978 1.24118,0 1.42715,7.30505 1.11397,43.75762 -0.21149,24.6154 0.25295,27.21031 5.79764,32.39254 3.32607,3.10863 12.82753,7.04718 13.67588,5.66894 0.79405,-1.29002 2.9649,-0.64355 7.10546,2.11597 4.9017,3.26679 6.58167,3.44439 8.9219,0.94321 2.82619,-3.02056 2.2532,-10.72261 -0.90112,-12.11284 -2.62201,-1.15561 -2.5957,-3.7253 0.0542,-5.29702 1.42673,-0.84621 2.65167,-1.07947 3.36012,-0.63984 0.61319,0.38051 1.3793,0.52777 1.70246,0.32723 0.98121,-0.60888 -0.0159,-9.2039 -1.2952,-11.16425 -1.49587,-2.29226 -1.55403,-5.0736 -0.1061,-5.0736 1.98843,0 3.08221,-2.09389 2.07796,-3.97797 -0.61175,-1.1477 -0.64473,-2.00456 -0.10243,-2.66065 0.43995,-0.53226 0.9104,-2.84119 1.04545,-5.13094 0.25431,-4.31199 1.65536,-6.04592 2.06134,-2.55112 0.12708,1.09394 0.61834,2.76694 1.09169,3.71777 0.51922,1.04298 0.60729,2.62103 0.22201,3.97797 -1.08814,3.8324 -0.37314,9.23022 1.49057,11.25278 l 1.69849,1.84326 -1.97072,1.59679 c -1.32156,1.0708 -1.64446,1.7303 -0.98026,2.0021 1.17613,0.48129 1.33838,2.6595 0.1981,2.6595 -1.26453,0 -0.91527,3.76037 0.39618,4.26567 0.65371,0.25187 1.18856,0.9679 1.18856,1.59119 0,0.62328 -0.53485,1.33931 -1.18856,1.59118 -0.95657,0.36856 -1.18856,2.16182 -1.18856,9.18749 0,4.80125 0.34175,8.94161 0.75944,9.2008 0.41769,0.2592 1.53491,2.60672 2.48271,5.21673 1.92889,5.31164 7.11446,12.79363 9.47446,13.6702 0.96504,0.35845 1.54611,1.31734 1.54611,2.55145 0,3.00416 1.6562,6.01771 3.57266,6.50067 1.57915,0.39795 4.35107,5.07079 4.35107,7.33493 0,0.58254 0.84897,0.73568 2.37712,0.42881 2.89708,-0.58177 3.17803,0.79809 0.59428,2.91881 -1.43014,1.17385 -1.5869,1.66339 -0.79238,2.47453 0.54476,0.55615 0.99047,1.52664 0.99047,2.15665 0,0.63 0.62399,1.61064 1.38665,2.1792 1.17355,0.87488 1.23226,1.28757 0.38202,2.68538 -0.82811,1.36141 -0.78973,2.06892 0.21844,4.02642 0.67269,1.30613 1.53661,2.37479 1.91981,2.37479 0.3832,0 1.6131,1.57001 2.7331,3.48891 1.21357,2.07922 2.80793,3.68336 3.94595,3.97014 1.05027,0.26467 3.77653,1.74269 6.05836,3.28449 3.78935,2.56041 4.39791,2.73379 7.02447,2.00125 1.58163,-0.44111 4.54923,-0.80402 6.59467,-0.80646 3.28975,-0.004 3.88104,-0.27991 5.12317,-2.39121 1.77076,-3.00984 3.15014,-3.02221 4.85275,-0.0435 1.49624,2.61763 3.90284,3.61292 5.50593,2.27706 0.78008,-0.65004 1.54809,-0.61925 2.91821,0.117 1.02273,0.54957 2.58895,0.76676 3.4805,0.48265 0.89156,-0.28412 2.93871,0.0362 4.54924,0.71189 6.36829,2.67165 21.24834,0.47868 32.64678,-4.81137 2.31677,-1.07521 2.84989,-1.06429 5.31208,0.10884 1.50527,0.71721 3.15348,1.80805 3.6627,2.42411 1.14874,1.38978 5.79413,1.47123 6.91005,0.12116 0.45413,-0.54942 1.06809,-1.96865 1.36436,-3.15386 1.09349,-4.37451 5.92772,-3.21437 5.92772,1.42256 0,1.60128 0.29846,1.70707 3.76378,1.33413 2.07007,-0.22278 4.41055,-0.74067 5.20107,-1.15087 1.53806,-0.79809 3.71075,0.39919 3.71595,2.04771 0.002,0.62748 4.95745,0.98483 16.48938,1.1891 l 16.48655,0.29203 2.70416,-2.47991 c 3.1705,-2.90757 4.90352,-3.12058 6.4434,-0.79196 0.90178,1.36367 2.02397,1.72257 5.84135,1.8682 2.99741,0.11435 5.65822,-0.27347 7.27701,-1.06065 2.07077,-1.00697 3.04177,-1.06815 5.15042,-0.32451 1.42921,0.50402 3.59161,0.71462 4.80535,0.46802 1.38311,-0.28103 2.71399,-0.005 3.56568,0.73863 1.29195,1.12855 13.65141,2.17957 29.29006,2.49076 5.02763,0.10005 5.73808,0.44433 3.96184,1.91991 -0.8571,0.71202 -17.89776,2.69426 -22.38454,2.60387 -0.87161,-0.0176 -11.5853,-0.24976 -23.8082,-0.516 -19.76866,-0.43061 -22.33948,-0.3437 -23.27393,0.78682 -1.15614,1.39873 -4.02593,1.73754 -4.02593,0.4753 0,-0.43757 -0.89142,-0.79559 -1.98093,-0.79559 -1.08952,0 -1.98094,0.33389 -1.98094,0.74198 0,0.96658 -3.12605,2.01255 -5.15042,1.72332 -0.87161,-0.12453 -2.20605,-0.78321 -2.96541,-1.46373 -0.75937,-0.68052 -3.23693,-1.53193 -5.50569,-1.89203 -3.46013,-0.5492 -4.66347,-0.38472 -7.46567,1.02045 l -3.34065,1.67519 -2.7366,-1.69818 c -1.61833,-1.00425 -4.05196,-1.69819 -5.95554,-1.69819 -2.7349,0 -3.25703,0.26919 -3.47216,1.79009 -0.32056,2.2663 -2.91788,2.39143 -4.12871,0.1989 -0.4833,-0.87516 -0.87901,-1.65114 -0.87935,-1.72441 -3.4e-4,-0.0733 -1.78318,0.24725 -3.96187,0.71228 -2.17868,0.46503 -10.91431,0.883 -19.41251,0.92882 -12.81907,0.0691 -15.89306,0.31165 -18.04458,1.42368 -3.28785,1.69935 -13.94548,1.34704 -16.01038,-0.52926 -1.61109,-1.46394 -6.84184,-1.57924 -9.72761,-0.21442 -1.47428,0.69726 -2.17277,1.70786 -2.337,3.38127 -0.1745,1.77798 -0.63847,2.38678 -1.819,2.38678 -1.29127,0 -1.65811,-0.66299 -1.98093,-3.58017 l -0.39619,-3.58017 -9.76743,-0.22387 c -11.05505,-0.25339 -10.33362,-0.55938 -19.46622,8.25649 -3.61951,3.49398 -4.40463,4.81413 -5.67785,9.54711 -0.91689,3.40839 -2.24059,6.24137 -3.48852,7.46615 -1.9783,1.94158 -3.59033,4.45173 -5.88559,9.16463 -0.63932,1.31272 -1.81191,3.00082 -2.60577,3.75132 -0.79385,0.75049 -2.1034,2.06794 -2.9101,2.92765 -1.58652,1.69077 -3.68369,1.42857 -3.68369,-0.46055 0,-0.64321 1.13408,-2.30548 2.52017,-3.69395 2.18538,-2.18911 9.36542,-15.93378 9.36542,-17.92813 0,-0.39114 0.53485,-1.15686 1.18856,-1.7016 1.42018,-1.18343 1.55723,-4.08515 0.25471,-5.39296 -0.51362,-0.51571 -1.70604,-2.4669 -2.64982,-4.33599 -1.69573,-3.35826 -1.76562,-3.39833 -5.92684,-3.39833 -2.66089,0 -4.33481,-0.36607 -4.54757,-0.99449 -0.18518,-0.54697 -1.38923,-0.99449 -2.67566,-0.99449 -1.28643,0 -3.20063,-0.56688 -4.25378,-1.25974 -1.86458,-1.22668 -1.94467,-1.18798 -3.05287,1.4751 -1.11279,2.67409 -3.48218,4.08103 -5.14012,3.0522 -0.45679,-0.28345 -1.21561,-1.53235 -1.68627,-2.77532 -0.80995,-2.13899 -1.04209,-2.23189 -4.33737,-1.73572 -2.13692,0.32175 -3.67982,0.2022 -3.99482,-0.30954 -0.75423,-1.22533 -3.36792,-1.016 -5.59315,0.44795 -1.79143,1.17856 -2.205,1.17856 -5.13858,0 -4.65112,-1.86857 -8.35001,-1.63448 -11.4287,0.7233 l -2.61807,2.00501 0.0218,14.70088 c 0.019,12.81267 -0.1534,14.89532 -1.34255,16.21465 -0.89301,0.99078 -1.0728,1.6947 -0.52039,2.03749 1.02673,0.63714 1.12218,4.14126 0.12958,4.75721 -1.16365,0.7221 -1.87907,9.70497 -1.26109,15.83455 0.52066,5.16441 0.82195,5.90421 3.23469,7.94262 2.45752,2.07623 2.99474,2.20584 7.03966,1.69841 4.12476,-0.51745 4.37911,-0.67734 4.37911,-2.75279 0,-2.07417 0.25568,-2.23552 4.35806,-2.75016 2.39692,-0.30069 4.35805,-0.65445 4.35805,-0.78613 0,-0.13167 -0.74132,-1.92208 -1.64737,-3.97869 -0.90605,-2.0566 -1.45209,-4.25021 -1.21343,-4.87469 0.79387,-2.0772 2.80922,-1.17354 4.41026,1.97751 1.28004,2.51928 1.90665,3.02759 3.2858,2.66547 1.10985,-0.29141 1.95926,0.0103 2.43568,0.86504 0.85371,1.5317 3.8088,1.77571 3.85121,0.318 0.0265,-0.91013 4.00269,-3.75955 8.53301,-6.11488 3.43788,-1.78738 3.56267,-0.37024 0.27314,3.10183 -1.80866,1.90902 -3.28847,3.774 -3.28847,4.14439 0,0.3704 -1.78284,1.77491 -3.96187,3.12112 -4.32947,2.67478 -4.99845,4.76761 -2.7733,8.67593 1.33171,2.33906 1.54252,5.56915 0.36346,5.56915 -0.45381,0 -1.93338,-1.79008 -3.28794,-3.97796 -1.99733,-3.2261 -2.87904,-3.97797 -4.66491,-3.97797 -1.21114,0 -2.73693,0.53703 -3.39064,1.19339 -0.6537,0.65637 -2.0163,1.19539 -3.02799,1.19783 -4.7096,0.0114 -13.50045,3.56722 -16.6588,6.7384 l -2.06938,2.07778 -0.28869,33.18146 c -0.23316,26.79873 -0.0836,33.51623 0.77737,34.92176 3.12076,5.09449 4.20326,15.85045 2.05123,20.38163 -1.17131,2.46625 -1.17131,2.88456 0,5.15884 0.70107,1.36123 1.27467,3.33088 1.27467,4.37701 0,3.17967 -2.1767,9.39051 -3.67716,10.49213 -1.14524,0.84082 -1.22808,1.26199 -0.43658,2.21956 0.59526,0.72016 0.93067,3.31778 0.85863,6.64973 -0.065,3.00736 0.13785,6.57297 0.45082,7.9236 0.41597,1.79512 0.12368,3.29 -1.08664,5.55737 -1.41522,2.65122 -1.65568,4.48561 -1.65568,12.6307 0,9.42701 0.0233,9.54835 2.17903,11.33526 l 2.17903,1.80624 -1.88454,1.48646 -1.88454,1.48646 3.30226,0.44473 c 1.81625,0.2446 3.85975,0.90927 4.54111,1.47705 1.10744,0.92283 1.05282,1.18356 -0.51505,2.4583 -0.96463,0.78429 -2.69494,1.43146 -3.84512,1.43816 -1.15018,0.007 -2.61401,0.34416 -3.25295,0.74991 -0.93247,0.59215 -0.73702,0.89986 0.99046,1.55931 2.69627,1.02929 2.78969,3.05678 0.17125,3.71664 -1.88198,0.47426 -1.98717,0.80289 -2.10576,6.5788 -0.0687,3.34378 -0.0381,6.61662 0.068,7.27298 0.24282,1.50281 0.0898,13.02689 -0.41485,31.25255 l -0.39177,14.1473 2.41266,2.42246 c 2.77641,2.7877 3.01041,4.17068 0.95365,5.63622 -2.37824,1.69461 -3.31433,4.26104 -3.77878,10.36014 -0.48657,6.3897 -0.68697,6.98912 -2.33653,6.98912 -0.78861,0 -1.14622,-0.92285 -1.15611,-2.98348 z m 45.17958,-338.72375 c 0.54253,-0.65637 1.4888,-1.19339 2.10282,-1.19339 0.61402,0 1.32165,0.53702 1.5725,1.19339 0.2982,0.78026 1.53256,1.19339 3.56568,1.19339 2.03312,0 3.26747,-0.41313 3.56568,-1.19339 0.58222,-1.52343 2.63081,-1.52576 4.79257,-0.005 2.22417,1.5642 6.64939,0.73406 7.19196,-1.34917 0.22902,-0.87933 1.35125,-1.70341 2.68419,-1.97108 3.10115,-0.62276 3.44011,-1.41359 3.17799,-7.41481 -0.15559,-3.56222 -0.70375,-5.84211 -1.76166,-7.32702 -0.84469,-1.18562 -1.5358,-2.8835 -1.5358,-3.77307 0,-1.42017 -0.4455,-1.59389 -3.65319,-1.42451 -2.70955,0.14308 -3.87784,-0.1547 -4.52284,-1.15281 -1.16826,-1.80781 1.31513,-4.60565 4.13888,-4.66296 l 2.05622,-0.0417 -1.78284,-1.2487 c -0.98056,-0.68678 -1.78284,-1.95318 -1.78284,-2.81422 0,-0.86103 -0.80228,-2.22611 -1.78284,-3.03351 -1.50598,-1.24004 -1.63545,-1.71114 -0.83372,-3.03373 0.81449,-1.34363 0.54656,-2.08452 -1.88884,-5.22317 -5.02059,-6.47033 -7.73374,-4.47305 -8.54103,6.28747 -0.29546,3.93819 -0.66627,9.66646 -0.82402,12.72949 -0.71838,13.94861 -1.7875,19.94751 -3.28676,18.44215 -0.8179,-0.82122 -1.39047,-15.27871 -0.67476,-17.03785 1.46074,-3.59038 -0.0938,-18.93379 -2.38571,-23.54664 -0.65764,-1.32364 -1.42699,-4.40145 -1.70965,-6.83959 -0.42905,-3.70079 -0.966,-4.85037 -3.25091,-6.96002 -3.31644,-3.06204 -4.81757,-3.63029 -14.33424,-5.42616 l -7.42137,-1.40046 -4.62697,2.22047 c -2.54483,1.22126 -4.80056,2.67472 -5.01275,3.2299 -0.21218,0.55519 -0.63096,4.0434 -0.93062,7.75158 -0.54208,6.708 -0.5318,6.76039 2.03126,10.34388 2.32696,3.2534 2.49176,3.84464 1.70407,6.11341 -0.47962,1.38142 -1.69103,3.15852 -2.69201,3.94909 -1.73408,1.36957 -1.83163,2.0092 -2.06678,13.55142 l -0.24679,12.114 3.40389,3.48241 c 2.62921,2.68986 3.98687,3.48241 5.96545,3.48241 1.40886,0 2.85004,0.44752 3.20261,0.99449 0.40921,0.63483 0.78432,-0.094 1.03723,-2.01533 0.5186,-3.93982 1.72358,-3.89942 3.0323,0.10165 1.21347,3.70989 1.41769,3.76909 13.7086,3.97423 5.92922,0.099 7.84836,-0.13852 8.61504,-1.06606 z m 8.7161,54.49812 c 0,-0.43757 0.55589,-0.79559 1.23532,-0.79559 0.67943,0 1.01495,0.35802 0.74561,0.79559 -0.26934,0.43758 -0.82524,0.7956 -1.23532,0.7956 -0.41009,0 -0.74561,-0.35802 -0.74561,-0.7956 z m -88.05153,-25.59157 c -0.054,-0.14586 -0.21508,-1.96578 -0.35802,-4.04427 -0.19895,-2.89287 0.01,-3.77907 0.8905,-3.77907 1.06694,0 1.20516,0.56943 1.48055,6.09955 0.0546,1.09689 -1.69168,2.59227 -2.01303,1.72379 z m 240.18714,-5.43656 c 0,-0.43757 1.06971,-0.79559 2.37712,-0.79559 1.30742,0 2.37712,0.35802 2.37712,0.79559 0,0.43758 -1.0697,0.7956 -2.37712,0.7956 -1.30741,0 -2.37712,-0.35802 -2.37712,-0.7956 z M 288.71386,616.54697 c -2.36786,-0.24869 -2.9714,-0.64386 -2.9714,-1.94554 0,-1.65197 1.06567,-1.71323 6.14571,-0.35333 0.76001,0.20345 2.00583,0.39731 2.76848,0.43079 0.76266,0.0335 1.38666,0.59789 1.38666,1.25426 0,1.21453 -0.89571,1.28955 -7.32945,0.61382 z"
       id="path1" /></g></svg>
