<?xml version="1.0" encoding="UTF-8" standalone="no"?>
<!-- Created with Inkscape (http://www.inkscape.org/) -->

<svg
   width="1920"
   height="1080"
   viewBox="0 0 1920 1080"
   version="1.1"
   id="svg1"
   xml:space="preserve"
   xmlns="http://www.w3.org/2000/svg"
   xmlns:svg="http://www.w3.org/2000/svg"
   xmlns:rdf="http://www.w3.org/1999/02/22-rdf-syntax-ns#"
   xmlns:cc="http://creativecommons.org/ns#"
   xmlns:dc="http://purl.org/dc/elements/1.1/"><title
     id="title20">downward-spike</title><defs
     id="defs1" /><g
     id="layer1"><path
       style="fill:#000000"
       d="m 1457.4548,957.09107 c -0.3272,-18.7 -0.1113,-34.56999 0.4799,-35.26666 1.4702,-1.73245 1.3693,-15.73929 -0.1068,-14.82702 -1.5009,0.92759 -2.8064,-3.86472 -2.6986,-9.90631 l 0.083,-4.66667 1.5652,4.31678 c 1.2328,3.39979 1.477,-6.93821 1.1496,-48.66666 -0.2287,-29.14089 -0.9031,-54.83499 -1.4988,-57.09799 -1.3005,-4.94026 -0.4683,-37.31897 1.3102,-50.98193 1.5763,-12.10927 1.6525,-26.90352 0.1385,-26.90352 -0.6228,0 -1.2102,4.21597 -1.3054,9.36883 -0.095,5.15285 -0.7856,10.5134 -1.5343,11.91234 -0.7486,1.39894 -1.4128,4.83296 -1.4758,7.63117 -0.1107,4.91386 -0.1533,4.95873 -1.2468,1.31347 -1.7319,-5.77346 -1.6332,-85.86576 0.1072,-86.94135 2.4017,-1.48436 2.7074,-0.0578 2.6182,12.21831 -0.047,6.50681 -0.088,13.63057 -0.09,15.83057 0,2.2 -0.031,8.35 -0.063,13.66666 -0.048,7.9124 0.3209,9.66667 2.0312,9.66667 1.8369,0 2.0662,-3.38922 1.8971,-28.04069 -0.1058,-15.42238 -0.6156,-28.30227 -1.1329,-28.62197 -1.8533,-1.14539 -1.2471,-21.2298 0.7059,-23.38782 1.5944,-1.76179 1.5812,-2.59688 -0.092,-5.82223 -3.2035,-6.17473 -2.0422,-9.76759 2.5833,-7.9926 1.4658,0.56247 1.8658,1.78619 1.3091,4.00433 -0.6924,2.7587 -0.3274,3.19432 2.6762,3.19432 3.0975,0 3.4778,0.51954 3.4778,4.75048 0,4.1058 -0.3903,4.69386 -2.876,4.33333 -1.5818,-0.22943 -3.1318,0.33286 -3.4445,1.24952 -0.3632,1.0651 0.7453,1.66667 3.0712,1.66667 h 3.6394 l -1.0222,24.33333 c -0.5623,13.38333 -1.05,25.1362 -1.084,26.11749 -0.034,0.98128 -1.4616,2.31643 -3.1727,2.967 -2.1255,0.80808 -3.1112,2.24938 -3.1112,4.54917 0,4.06459 2.1442,4.44637 3.3653,0.59919 0.483,-1.52193 1.2337,-2.41171 1.6681,-1.97729 1.1677,1.16768 0.3712,52.81601 -1.1938,77.4111 -0.7466,11.73333 -1.8544,65.13333 -2.4618,118.66666 -0.6275,55.30391 -1.6585,99.06056 -2.3877,101.33332 -0.9208,2.87007 -1.4514,-5.60458 -1.8783,-30 z m 5.4219,-199.66665 c 0.2461,-3.08507 -2.2363,-1.69989 -3.0966,1.72799 -1.1477,4.57266 0.8055,7.69294 2.0397,3.25857 0.5082,-1.82594 0.9838,-4.06989 1.0569,-4.98656 z m 0.133,-17.15738 c 0,-1.09999 -0.6,-1.62917 -1.3334,-1.17595 -0.7333,0.45323 -1.3333,1.72405 -1.3333,2.82405 0,1.1 0.6,1.62917 1.3333,1.17595 0.7334,-0.45322 1.3334,-1.72405 1.3334,-2.82405 z m 1.3333,-35.17595 c 0,-0.73333 -0.5646,-1.33333 -1.2547,-1.33333 -0.69,0 -1.6254,0.6 -2.0786,1.33333 -0.4533,0.73334 0.1113,1.33334 1.2546,1.33334 1.1433,0 2.0787,-0.6 2.0787,-1.33334 z m -0.7236,-22.57453 c 0.4219,-0.68266 0.1573,-1.61807 -0.588,-2.07869 -0.7453,-0.46062 -1.3551,0.0979 -1.3551,1.2412 0,2.34204 0.8001,2.68688 1.9431,0.83749 z m 0.7236,-9.42546 c 0,-0.73334 -0.6,-1.33334 -1.3333,-1.33334 -0.7334,0 -1.3334,0.6 -1.3334,1.33334 0,0.73333 0.6,1.33333 1.3334,1.33333 0.7333,0 1.3333,-0.6 1.3333,-1.33333 z m -9.6485,210.66665 c -0.54,-1.83334 -0.9198,-7.23334 -0.8441,-12 l 0.1377,-8.66667 1.2263,7.33333 c 0.6745,4.03334 1.0544,9.43334 0.8442,12 -0.3532,4.31147 -0.457,4.41295 -1.3641,1.33334 z m -1.069,-43.44445 c -1.4562,-35.01897 -2.1001,-69.29918 -1.388,-73.88888 0.5306,-3.41954 1.2365,11.20307 1.6413,34 0.3907,22 0.5049,40.25 0.2539,40.55555 -0.251,0.30556 -0.4792,0.006 -0.5072,-0.66667 z m -2.5753,-198.6222 c 0.035,-3.44815 0.2171,-3.62966 1.4715,-1.4715 1.0255,1.76435 1.014,2.87874 -0.041,3.93333 -1.0731,1.07311 -1.4605,0.4066 -1.431,-2.46183 z m 0.053,-8.93333 c 0.079,-3.63137 0.2793,-3.90136 1.2396,-1.66667 1.5829,3.6836 1.5829,6 0,6 -0.7333,0 -1.2911,-1.95 -1.2396,-4.33333 z m 0.1168,-9 c 0,-1.83334 0.3026,-2.58334 0.6725,-1.66667 0.3699,0.91667 0.3699,2.41667 0,3.33333 -0.3699,0.91667 -0.6725,0.16667 -0.6725,-1.66666 z m 13.7104,-8.12795 c -0.4967,-0.80371 0.068,-2.43228 1.2547,-3.61905 1.9881,-1.98813 2.1577,-1.87325 2.1577,1.46128 0,3.68225 -1.7761,4.80534 -3.4124,2.15777 z m -13.9209,-6.53872 c 0,-1.48148 0.8889,-2.66667 2,-2.66667 2.2441,0 2.3342,0.2442 1.1907,3.22429 -1.1433,2.9792 -3.1907,2.62138 -3.1907,-0.55762 z m 10.429,-4.09547 c -0.3494,-3.66439 0.079,-5.76265 1.3177,-6.45596 1.5494,-0.8671 1.5246,-1.94299 -0.1593,-6.90453 -1.5563,-4.58522 -1.9043,-11.30038 -1.5832,-30.54404 0.4834,-28.96887 0.3412,-27.02257 1.9037,-26.05693 0.6826,0.4219 1.618,0.15731 2.0786,-0.58798 0.4638,-0.7503 -0.3877,-1.35508 -1.9078,-1.35508 -1.5515,0 -2.7454,-0.86978 -2.7454,-2 0,-1.1 1.1301,-2 2.5112,-2 2.5928,0 4.5468,-5.42892 3.2088,-8.9155 -1.0652,-2.77584 -3.0533,-2.03503 -3.0533,1.13772 0,1.58889 -0.45,2.43764 -1,1.88612 -0.55,-0.55152 -1,-13.2508 -1,-28.22063 0,-20.58829 0.3978,-27.21825 1.6333,-27.21945 1.6603,-0.002 1.0794,-6.40006 -0.9685,-10.66826 -1.1189,-2.33194 -0.1405,-12 1.2144,-12 0.5064,0 1.587,0.66617 2.4012,1.48038 1.0849,1.08494 2.0323,0.46167 3.5466,-2.33334 l 2.0662,-3.8137 0.053,7.22222 c 0.029,3.97222 -0.3966,6.77222 -0.9466,6.22222 -0.55,-0.55 -1,-1.55 -1,-2.22222 0,-0.67222 -0.5846,-1.37222 -1.2991,-1.55556 -0.7145,-0.18333 -1.4572,1.61667 -1.6505,4 -0.2814,3.47029 0.1456,4.33334 2.1437,4.33334 3.194,0 3.8769,3.61325 2.7716,14.66666 -0.4766,4.76667 -0.9714,30.26667 -1.0996,56.66666 -0.2898,59.71239 -1.1683,76.73632 -4.0744,78.95759 -3.3048,2.52601 -3.808,2.09699 -4.3627,-3.71973 z m 4.2377,-51.90453 c 0,-0.73333 -0.6,-1.33333 -1.3334,-1.33333 -0.7333,0 -1.3333,0.6 -1.3333,1.33333 0,0.73334 0.6,1.33334 1.3333,1.33334 0.7334,0 1.3334,-0.6 1.3334,-1.33334 z m 0,-13.33333 c 0,-0.73333 -0.6,-1.33333 -1.3334,-1.33333 -0.7333,0 -1.3333,0.6 -1.3333,1.33333 0,0.73334 0.6,1.33334 1.3333,1.33334 0.7334,0 1.3334,-0.6 1.3334,-1.33334 z m 2.6666,-57.07849 c 0,-0.59317 -0.8035,-2.17735 -1.7855,-3.5204 -1.7191,-2.35091 -1.8201,-2.35196 -2.7119,-0.0281 -0.5483,1.42881 -0.2277,2.85703 0.7856,3.49998 2.2005,1.39624 3.7118,1.416 3.7118,0.0485 z m 0,-11.06415 c 0,-0.65488 -0.9,-1.19069 -2,-1.19069 -1.1,0 -2,0.88117 -2,1.95816 0,1.19279 0.7817,1.65818 2,1.19068 1.1,-0.42211 2,-1.30328 2,-1.95815 z m -17.3333,126.18448 c 0,-1.19279 0.7817,-1.65818 2,-1.19068 1.1,0.42211 2,1.30328 2,1.95816 0,0.65487 -0.9,1.19068 -2,1.19068 -1.1,0 -2,-0.88117 -2,-1.95816 z m 1.7146,-17.37517 c 0.01,-3.66667 0.269,-5.00842 0.5755,-2.98167 0.3064,2.02675 0.2982,5.02675 -0.018,6.66667 -0.3165,1.63991 -0.5673,-0.0183 -0.5573,-3.685 z m -1.6722,-16.41203 c -0.026,-5.19127 0.4602,-8.10134 1.2705,-7.60058 0.7221,0.44629 1.2409,2.1317 1.1529,3.74535 -0.088,1.61366 0.2344,3.85114 0.7165,4.97218 0.4821,1.12104 -0.018,3.22104 -1.1105,4.66667 -1.8292,2.41969 -1.9904,1.96042 -2.0294,-5.78362 z m -0.042,-12.92131 c 0,-1.1 0.9,-1.99999 2,-1.99999 1.1,0 2,0.89999 2,1.99999 0,1.1 -0.9,2 -2,2 -1.1,0 -2,-0.9 -2,-2 z m 103.898,-20.33333 c -0.056,-2.01666 -0.3308,-4.86666 -0.6104,-6.33333 -0.2796,-1.46667 -0.7804,-7.76667 -1.1129,-14 -0.3325,-6.23333 -1.534,-13.50712 -2.6701,-16.16398 -1.136,-2.65685 -1.6894,-5.20685 -1.2295,-5.66666 0.4598,-0.45981 -0.314,-0.84937 -1.7196,-0.86567 -1.4055,-0.0163 -4.0079,-1.14614 -5.7831,-2.51074 l -3.2276,-2.48109 4.1494,-0.91136 c 6.2875,-1.38096 9.635,1.03791 9.6595,6.97975 0.015,3.68886 0.3503,4.4426 1.3129,2.95309 0.7109,-1.1 1.3017,-3.25701 1.313,-4.79335 0.029,-3.94915 3.5513,-6.43591 12.0204,-8.48596 4.0333,-0.97633 9.4244,-2.88789 11.9802,-4.24792 2.5558,-1.36002 5.4846,-2.47277 6.5085,-2.47277 1.0238,0 6.6509,-2.55 12.5045,-5.66667 10.7037,-5.69897 15.6589,-10.22624 20.0484,-18.31695 2.7202,-5.01397 4.1818,-4.69884 2.8483,0.61414 -1.2151,4.84133 -11.7983,14.88732 -19.2233,18.24752 -3.3,1.49342 -8.4,3.81451 -11.3333,5.15796 -2.9333,1.34346 -8.9333,4.05075 -13.3333,6.0162 -15.4564,6.90426 -17.35,7.86291 -19.3036,9.77221 -1.6182,1.58157 -1.8968,5.93803 -1.559,24.38392 0.2262,12.35208 0.063,22.45833 -0.3631,22.45833 -0.4259,0 -0.8202,-1.65 -0.8763,-3.66667 z m -66.5647,-34.99999 c -1.6456,-1.06347 -1.5275,-1.26817 0.6667,-1.15517 1.4666,0.0755 4.4666,0.59536 6.6666,1.15517 l 4,1.01782 -4.6666,0.13734 c -2.5667,0.0755 -5.5667,-0.44429 -6.6667,-1.15516 z m -38.1797,-12.66667 c 0,-7.33333 0.2274,-10.16322 0.4976,-6.28864 0.2701,3.87459 0.2673,9.87458 -0.01,13.33334 -0.2737,3.45875 -0.4948,0.28863 -0.4913,-7.0447 z m 50.1797,11.64931 c 0,-0.73844 1.5699,-2.37124 3.4886,-3.62844 2.2705,-1.48769 3.2925,-1.69746 2.9269,-0.60079 -0.7398,2.21939 -6.4155,5.96093 -6.4155,4.22923 z m 5.3333,-9.36687 c 0,-1.39788 -1.35,-3.19268 -3,-3.98845 -1.65,-0.79576 -2.25,-1.48745 -1.3333,-1.53708 2.386,-0.12919 2.0683,-2.75691 -0.3333,-2.75691 -1.1,0 -2.0092,0.75 -2.0205,1.66667 -0.014,1.1354 -0.3326,1.20533 -1,0.21938 -0.5387,-0.79601 -2.1795,-2.16085 -3.6462,-3.03298 -2.2051,-1.31122 -1.5127,-1.44 4,-0.74399 3.6667,0.46294 7.4167,1.79245 8.3333,2.95448 1.9984,2.53327 2.1943,7.7863 0.3334,8.93644 -0.7334,0.45322 -1.3334,-0.31968 -1.3334,-1.71756 z m 7.2999,-1.56154 c 0.8004,-1.29514 -1.6774,-6.6903 -3.7755,-8.2209 -2.0807,-1.51785 1.3072,-2.40358 5.2056,-1.36097 3.0475,0.81501 3.3662,1.20542 1.5524,1.90143 -3.9787,1.52678 -2.4683,3.62093 2.7176,3.76805 4.993,0.14164 4.9948,0.14389 1.3334,1.59072 -2.0167,0.79688 -3.6667,1.93306 -3.6667,2.52483 0,0.59177 -0.9354,1.07594 -2.0787,1.07594 -1.1433,0 -1.7229,-0.57559 -1.2881,-1.2791 z m 20.7001,-6.74134 c 0,-0.72209 2.3336,-1.31289 5.1857,-1.31289 7.7544,0 11.4506,-3.58692 11.1617,-10.83157 -0.1626,-4.07833 0.1418,-5.21454 1.0235,-3.82002 1.4866,2.35126 1.6753,12.02376 0.2754,14.11476 -1.2786,1.90974 -17.6463,3.62544 -17.6463,1.84972 z m -12.0415,-2.41176 c -2.5492,-2.06419 -2.8096,-3.01429 -1.7213,-6.27916 l 1.2823,-3.84695 2.5287,4.28087 c 1.3909,2.35448 3.6783,4.64569 5.0832,5.09158 2.0413,0.64791 2.1842,1.04512 0.7115,1.97787 -2.7568,1.74598 -4.5627,1.46558 -7.8844,-1.22421 z m 38.0415,1.14126 c -3.705,-0.66862 -4.0146,-1.16384 -4.1983,-6.71545 -0.1091,-3.29649 0.074,-4.70627 0.4078,-3.13285 0.821,3.87453 4.1878,6.66868 9.7905,8.12533 4.326,1.1247 4.4234,1.25823 1.3334,1.82905 -1.8334,0.33868 -5.1334,0.29094 -7.3334,-0.10608 z m -123.7933,-2.48071 c -2.2993,-2.54071 -2.9454,-5.56168 -1.1895,-5.56168 0.5594,0 1.6094,-1.31119 2.3333,-2.91374 0.7239,-1.60256 2.1258,-3.17243 3.1153,-3.48861 1.3447,-0.42963 1.2515,0.261 -0.3687,2.73377 -1.6862,2.5735 -1.8638,4.10853 -0.7992,6.90874 0.7528,1.98006 1.3688,3.86104 1.3688,4.17997 0,1.39451 -2.434,0.3803 -4.46,-1.85845 z m 67.7933,-3.04885 c -12.4176,-1.84935 -27.3333,-9.73855 -27.3333,-14.45708 0,-2.31742 2.0314,-1.57049 5.3574,1.96987 1.7356,1.84742 3.7117,3.17356 4.3915,2.94697 0.6797,-0.22658 3.0278,1.26189 5.2178,3.30772 3.28,3.06392 5.1912,3.72329 10.841,3.74011 6.5331,0.0194 11.7743,1.64722 9.3347,2.89909 -0.6283,0.3224 -4.1424,0.13939 -7.8091,-0.40668 z m 32.2223,-2.06839 c -1.5068,-1.5068 -0.9823,-9.1522 0.7777,-11.33662 1.7278,-2.1443 6.3334,-4.27103 6.3334,-2.92453 0,0.42144 -1.5511,1.98633 -3.4468,3.47752 -2.902,2.28265 -3.314,3.41962 -2.6063,7.1919 0.8406,4.48085 0.6109,5.26067 -1.058,3.59173 z m -102.4621,-2.46202 c -1.5122,-1.51223 0.5164,-5.85692 3.7124,-7.95107 3.5692,-2.33862 4.394,-0.68703 1.0449,2.09243 -1.182,0.981 -2.5552,2.8813 -3.0514,4.22289 -0.4963,1.34158 -1.264,2.07767 -1.7059,1.63575 z m 16.2602,-4.23707 c 0.015,-3.77002 0.3535,-4.56333 1.313,-3.07868 1.6851,2.60757 1.6851,6.29185 0,7.33333 -0.8009,0.49498 -1.3252,-1.20401 -1.313,-4.25465 z m -61.3052,2.02248 c -5.9625,-1.71073 -13.6192,-8.40489 -15.6137,-13.651 -0.8609,-2.26426 -1.6109,-9.03142 -1.6667,-15.03814 -0.056,-6.00672 -0.7169,-11.30166 -1.4691,-11.76654 -0.7521,-0.46488 -4.6667,-1.18573 -8.699,-1.6019 -4.0322,-0.41617 -6.9995,-1.08859 -6.5938,-1.49427 2.0041,-2.00404 17.823,-2.62647 19.0416,-0.74924 0.5237,0.80671 1.6546,1.70671 2.5131,2 1.0966,0.37464 0.7991,2.0914 -1,5.77134 -1.4085,2.88095 -2.5519,7.68095 -2.5408,10.66667 0.028,7.5428 3.1769,15.98674 6.1848,16.58427 1.354,0.26895 4.1736,1.70384 6.2658,3.18863 3.7294,2.64658 5.466,3.09942 13.5293,3.52792 3.8136,0.20267 3.8794,0.30378 1.4118,2.17017 -2.9278,2.21446 -4.7879,2.27865 -11.3633,0.39209 z m 129.3901,0.47026 c -0.1812,-3.0323 -3.9278,-5.74474 -8.099,-5.86333 -4.7317,-0.13453 -4.9089,-0.46455 -1.2892,-2.40171 3.7511,-2.00754 7.3451,-0.56694 10.8439,4.34656 1.6299,2.28904 2.2967,3.74982 1.4818,3.24617 -0.8149,-0.50365 -1.7855,-0.16199 -2.157,0.75924 -0.5192,1.28787 -0.6996,1.26778 -0.7805,-0.0869 z m 50.4891,-4.90476 c -0.5533,-3.72397 -0.9855,-4 -6.2628,-4 -7.0012,0 -7.3808,-1.37263 -0.6803,-2.45998 6.0968,-0.98936 8.7682,1.20564 8.0491,6.61351 l -0.5116,3.84647 z m -19.0388,-1.55555 c -0.4889,-0.48889 -0.8889,-1.50889 -0.8889,-2.26667 0,-0.83547 0.621,-0.75675 1.5778,0.2 0.8678,0.86778 1.2678,1.88778 0.8889,2.26667 -0.3789,0.37889 -1.0889,0.28889 -1.5778,-0.2 z m -125.8889,-3.03586 c -1.65,-1.37649 -3,-3.52999 -3,-4.78557 0,-1.97647 0.3028,-2.03726 2.2559,-0.45294 1.5631,1.26786 1.9462,1.31434 1.2473,0.15132 -0.5548,-0.92322 -0.6761,-2.72322 -0.2696,-3.99999 0.9329,-2.93058 9.8641,-3.76262 13.3136,-1.24032 2.1339,1.56034 1.6483,1.76105 -4.0618,1.6789 -6.0538,-0.0871 -6.4854,0.12853 -6.4854,3.24001 0,2.78678 0.7652,3.44856 4.6667,4.03608 4.4662,0.67255 4.5415,0.77279 1.7543,2.33333 -3.9268,2.19854 -5.8716,2.00019 -9.421,-0.96082 z m 109,0.59141 c 0,-1.1 0.6,-2 1.3333,-2 0.7334,0 1.3334,0.9 1.3334,2 0,1.1 -0.6,2 -1.3334,2 -0.7333,0 -1.3333,-0.9 -1.3333,-2 z m 38.6667,-2.04613 c 0,-1.9107 2.8241,-2.99638 4.2043,-1.61624 0.8514,0.85147 0.3475,1.55573 -1.4495,2.02566 -1.5152,0.39622 -2.7548,0.21198 -2.7548,-0.40942 z m -132,-2.62053 c -1.127,-2.10569 -1.014,-2.66667 0.5368,-2.66667 1.1422,0 1.88,1.11597 1.7632,2.66667 -0.1105,1.46666 -0.3521,2.66666 -0.5369,2.66666 -0.1848,0 -0.9782,-1.2 -1.7631,-2.66666 z m 82.1806,0.69894 c -2.3057,-1.7463 -2.2089,-1.84663 1.3333,-1.3828 2.1007,0.27507 4.7194,0.58363 5.8194,0.6857 1.3919,0.12916 1.1893,0.53397 -0.6667,1.33149 -3.5681,1.5333 -3.6323,1.52703 -6.486,-0.63439 z m 28.1137,-0.82755 c -2.2157,-1.2897 -2.1717,-1.5437 0.6667,-3.84819 2.4258,-1.96946 3.2412,-2.10934 4.0411,-0.69319 1.0456,1.85116 0.01,6.0331 -1.4781,5.96277 -0.4716,-0.0223 -1.9249,-0.66192 -3.2297,-1.42139 z m 35.6272,-0.59895 c 1.4235,-1.06651 5.0235,-1.90108 8,-1.8546 6.3016,0.0984 3.5577,1.65915 -5.2549,2.98893 -4.8842,0.73701 -5.1154,0.6415 -2.7451,-1.13433 z m -99.6635,-1.93979 c 1.6033,-1.83371 3.5131,-4.83371 4.244,-6.66667 1.1731,-2.94197 1.3388,-3.01021 1.4134,-0.5821 0.047,1.51279 -1.8633,4.51279 -4.2439,6.66666 -3.2252,2.91792 -3.5855,3.0663 -1.4135,0.58211 z m 48.4086,0.39058 c 1.8334,-0.33915 4.9771,-2.17187 6.9861,-4.07273 4.087,-3.86694 5.7312,-3.3564 4.5353,1.40828 -0.7135,2.84279 -1.55,3.18821 -7.8268,3.23202 -3.8653,0.027 -5.5279,-0.22843 -3.6946,-0.56757 z m 26.646,-2.41485 c -1.7904,-2.15728 -1.1388,-15.08897 0.9208,-18.2741 0.605,-0.93552 1.0999,-4.10095 1.0999,-7.03428 v -5.33333 l 6.3333,-0.40639 c 5.7963,-0.37193 6.3334,-0.15244 6.3334,2.58817 0,2.8963 -0.061,2.91063 -1.8704,0.43673 -1.5352,-2.09958 -2.5194,-2.32439 -5.4937,-1.25484 -3.2648,1.17403 -3.6635,2.02878 -4.0293,8.63632 -0.2232,4.03334 -0.8174,9.91865 -1.3205,13.07847 -0.7516,4.72155 -0.4725,6.07993 1.5663,7.62426 2.131,1.61412 2.1749,1.88511 0.3108,1.92154 -1.1935,0.0233 -2.9263,-0.86883 -3.8506,-1.98255 z m -140.3468,-3.85896 c -0.4778,-2.86948 -2.7188,-7.51948 -4.9801,-10.33333 -2.2613,-2.81385 -3.5566,-5.11609 -2.8785,-5.11609 0.6781,0 1.9919,0.9145 2.9195,2.03222 0.9276,1.11772 2.0024,1.71641 2.3884,1.33042 0.386,-0.38599 1.8005,0.29251 3.1433,1.50777 2.4958,2.25865 2.9161,6.53149 1.2259,12.46292 -0.8683,3.04718 -1.0244,2.88546 -1.8185,-1.88391 z m -44.1886,2.06286 c -0.5743,-0.92933 -0.6842,-2.04978 -0.2441,-2.48988 1.1933,-1.19328 2.4944,0.56174 1.8499,2.49526 -0.4517,1.3549 -0.7657,1.35385 -1.6058,-0.005 z m 156.5784,-2.84562 c -0.032,-1.1 -0.419,-3.5 -0.8592,-5.33333 l -0.8006,-3.33333 2.2225,2.99258 c 1.6453,2.21535 1.8684,3.60051 0.8593,5.33333 -1.0718,1.84038 -1.3758,1.91322 -1.422,0.34075 z m 19.1581,-2.33333 c -0.032,-1.28333 -0.5114,-6.01632 -1.066,-10.51775 -0.7222,-5.86224 -0.5555,-8.46429 0.5877,-9.17082 0.8778,-0.54252 2.1198,-0.15953 2.7599,0.85108 1.7108,2.70098 1.4549,11.05396 -0.3953,12.90416 -1.0531,1.05305 -1.1062,1.6 -0.1555,1.6 2.3232,0 3.0366,5.06806 0.8324,5.91389 -2.6116,1.00216 -2.4976,1.07245 -2.5632,-1.58056 z m -8.5137,-5e-4 c 0,-0.92101 -3.0637,-15.77267 -4.1832,-20.27881 -0.3077,-1.23854 0.6168,-2.02108 2.543,-2.15256 2.7093,-0.18492 2.9425,0.24107 2.2254,4.06377 -0.4882,2.60254 0.022,6.24072 1.3068,9.31539 2.5046,5.99427 2.5639,6.49188 0.6318,5.29776 -0.9934,-0.61394 -1.182,0.0145 -0.5768,1.92131 0.5336,1.68119 0.3205,2.83364 -0.5238,2.83364 -0.7828,0 -1.4232,-0.45022 -1.4232,-1.0005 z m -72.2802,-4.7578 c -0.325,-1.70039 -0.1371,-4.25039 0.4175,-5.66666 0.7135,-1.82173 1.036,-0.9173 1.1023,3.09163 0.1028,6.21865 -0.5967,7.40387 -1.5198,2.57503 z m -122.831,0.86941 c -0.4888,-0.48889 -0.8888,-1.50889 -0.8888,-2.26666 0,-0.83548 0.621,-0.75676 1.5777,0.2 0.8678,0.86777 1.2678,1.88777 0.8889,2.26666 -0.3789,0.37889 -1.0889,0.28889 -1.5778,-0.2 z m 138.5445,-3.28161 c -2.1007,-2.0431 -2.1909,-2.49617 -0.4966,-2.49617 2.4155,0 5.6918,3.47438 4.128,4.37746 -0.5856,0.33818 -2.2197,-0.5084 -3.6314,-1.88129 z m -104.294,-6.78997 c 3.9317,-5.15468 11.3695,-8.58843 15.249,-7.03984 1.7122,0.68346 0.6512,1.55741 -4.2696,3.51692 -3.6014,1.43409 -8.3864,3.91655 -10.6335,5.51656 l -4.0854,2.90911 z m 50.5498,1.2938 c -1.7558,-2.24417 -2.9843,-7.5393 -1.8973,-8.1782 0.4811,-0.2828 3.5399,-0.95557 6.7971,-1.49504 5.4597,-0.90424 5.7535,-0.8121 3.7619,1.17953 -1.1882,1.18821 -3.339,2.16038 -4.7796,2.16038 -3.4587,0 -4.6482,3.39926 -2.086,5.96142 1.1212,1.12122 1.4692,2.03858 0.7733,2.03858 -0.696,0 -1.8522,-0.75 -2.5694,-1.66667 z m 28.3109,0.33334 c 0.4532,-0.73334 1.3886,-1.33334 2.0786,-1.33334 0.6901,0 1.2547,0.6 1.2547,1.33334 0,0.73333 -0.9354,1.33333 -2.0787,1.33333 -1.1433,0 -1.7079,-0.6 -1.2546,-1.33333 z m -117.765,-2.46284 c -2.6303,-2.28122 -5.9431,-2.46537 -44.9235,-2.49727 -23.1462,-0.0189 -42.4601,-0.41067 -42.9199,-0.8705 -0.4599,-0.45983 0.6139,-0.84728 2.3861,-0.86099 16.1777,-0.12518 45.8641,-1.73788 51.2014,-2.78149 5.0894,-0.99514 6.963,-0.89674 8,0.42014 0.9519,1.20877 5.5132,1.71962 15.3542,1.71962 h 14 l 0.062,3.66666 c 0.034,2.01667 -0.024,3.66667 -0.1293,3.66667 -0.1052,0 -1.4692,-1.10828 -3.031,-2.46284 z m 185.0983,-0.77834 c 0,-3.97245 2.6648,-7.42615 5.7136,-7.40507 1.6245,0.0112 2.3325,0.46114 1.5738,1 -0.7586,0.53877 -2.7086,2.7105 -4.3334,4.82606 -2.1616,2.81474 -2.954,3.23828 -2.954,1.57901 z m -5.0571,-3.47867 c -1.3946,-2.23307 -3.3287,-2.65299 -13.2875,-2.88488 l -11.6554,-0.27139 10.979,-0.44886 c 11.5072,-0.47045 18.5238,1.48131 16.5877,4.61402 -0.7077,1.14508 -1.4591,0.85615 -2.6238,-1.00889 z m -107.0195,-1.21371 c 2.3558,-2.04316 3.3693,-2.25739 4.7307,-1 2.4756,2.2864 1.1606,3.60022 -3.6035,3.60022 h -4.1253 z m 53.4099,0.0123 c 0,-1.42339 0.6,-2.9588 1.3334,-3.41202 0.7562,-0.46737 1.3333,0.65282 1.3333,2.58797 0,1.87661 -0.6,3.41202 -1.3333,3.41202 -0.7334,0 -1.3334,-1.16458 -1.3334,-2.58797 z m 110.7512,0.92131 c -0.046,-1.28333 -0.6283,-2.33333 -1.293,-2.33333 -0.6647,0 -0.8947,-1.2 -0.5112,-2.66667 0.3836,-1.46667 1.2274,-2.66667 1.8752,-2.66667 2.5134,0 1.017,-2.51217 -1.8222,-3.05902 -1.65,-0.3178 1.8,-0.59973 7.6667,-0.62649 7.1671,-0.0327 9.5731,0.30156 7.3333,1.01885 -2.7253,0.8728 -2.1173,1.12058 3.3334,1.35844 l 6.6666,0.29092 -8.6666,1.50865 c -9.8812,1.72007 -11.7258,2.63878 -13.3423,6.64509 -0.9217,2.28445 -1.1725,2.39168 -1.2399,0.53023 z m -248.6684,-3.52724 c 1.2148,-1.21483 15.1452,-1.04766 14.391,0.17269 -0.368,0.59547 -3.9324,0.97603 -7.9208,0.8457 -3.9884,-0.13033 -6.9,-0.58861 -6.4702,-1.01839 z m 22.5938,-4.71143 c -2.8806,-3.24794 -5.7113,-5.61253 -6.2904,-5.25465 -0.5791,0.35788 -1.0528,-4.28471 -1.0528,-10.31688 0,-11.81498 1.1024,-13.46597 2.0736,-3.10546 0.787,8.39607 4.3773,15.49704 8.9264,17.65508 2.1474,1.01871 3.6666,2.81418 3.6666,4.33333 0,3.89602 -1.5542,3.19324 -7.3234,-3.31142 z m 25.3369,4.55025 c 0.4606,-0.74529 1.396,-1.00988 2.0787,-0.58797 1.8493,1.14298 1.5045,1.94306 -0.8375,1.94306 -1.1433,0 -1.7019,-0.60979 -1.2412,-1.35509 z m 101.0119,0.4311 c 1.2973,-0.33806 3.0973,-0.31583 4,0.0494 0.9027,0.36523 -0.1587,0.64183 -2.3587,0.61465 -2.2,-0.0272 -2.9386,-0.32599 -1.6413,-0.66405 z m 9.9746,0.0409 c 0.9167,-0.36988 2.4167,-0.36988 3.3334,0 0.9166,0.36989 0.1666,0.67252 -1.6667,0.67252 -1.8333,0 -2.5833,-0.30263 -1.6667,-0.67252 z m -112.4408,-7.25074 c 6.2395,-5.70253 7.4408,-7.53229 7.4408,-11.33334 0,-2.63668 0.6693,-4.53287 1.6,-4.53287 1.2445,0 1.2445,-0.35556 0,-1.6 -0.88,-0.88 -1.6,-2.58701 -1.6,-3.79335 0,-1.20634 -1.2,-3.27934 -2.6666,-4.60665 -1.4667,-1.32732 -2.6667,-2.92539 -2.6667,-3.55128 0,-2.13763 5.14,2.0665 6.6926,5.47399 2.0758,4.5559 3.0643,16.07729 1.3794,16.07729 -0.7269,0 -0.9626,0.93579 -0.5237,2.07954 0.5367,1.39852 -0.1567,2.3292 -2.1172,2.84189 -1.6034,0.4193 -2.6359,1.49044 -2.2944,2.38033 0.5103,1.32984 -9.2791,7.3649 -11.9465,7.3649 -0.4061,0 2.6099,-3.0602 6.7023,-6.80045 z m -52.5592,3.30386 c 0,-1.77172 0.362,-1.86284 2,-0.50341 1.1,0.91292 2,1.88639 2,2.16326 0,0.27688 -0.9,0.50341 -2,0.50341 -1.1,0 -2,-0.97347 -2,-2.16326 z m 65.7683,0.2776 c -0.8608,-0.98133 -1.069,-2.30851 -0.4628,-2.94929 0.6063,-0.64078 1.397,-2.36505 1.7571,-3.83172 0.6225,-2.53517 0.7023,-2.51874 1.6183,0.33334 0.5299,1.65 1.7935,3 2.808,3 1.2963,0 1.052,0.79243 -0.8222,2.66666 -3.1091,3.10909 -2.8873,3.07373 -4.8984,0.78101 z m 30.747,-0.53608 c 0.435,-0.70377 -1.003,-1.64679 -3.1956,-2.09559 -2.1925,-0.4488 -5.9346,-1.20586 -8.3157,-1.68235 -5.5832,-1.11723 -13.3348,-8.48948 -15.5953,-14.83216 -0.9739,-2.73249 -2.8892,-6.56078 -4.2563,-8.50732 -1.3672,-1.94654 -2.4857,-4.49654 -2.4857,-5.66667 0,-1.17012 -0.6354,-2.1275 -1.412,-2.1275 -0.7766,0 -1.025,-0.62628 -0.5519,-1.39174 0.4731,-0.76546 0.1491,-2.24845 -0.7199,-3.29554 -0.869,-1.04708 -2.0515,-3.8708 -2.6278,-6.27492 -0.5762,-2.40412 -1.4735,-5.57113 -1.9939,-7.0378 -0.6006,-1.69304 -0.5127,-2.06847 0.2409,-1.02827 0.899,1.24085 1.7136,1.02335 3.3574,-0.8964 1.8269,-2.13365 1.8699,-2.65007 0.2721,-3.26321 -1.044,-0.40064 -1.8982,-0.14726 -1.8982,0.56306 0,0.71032 -0.5812,1.29149 -1.2915,1.29149 -0.7104,0 -0.9462,-0.9 -0.524,-2 0.4221,-1.1 1.3914,-2 2.1541,-2 0.7627,0 3.9495,-2.1 7.0818,-4.66667 3.1322,-2.56667 6.464,-4.66667 7.4039,-4.66667 1.1124,0 1.2543,-0.4547 0.4064,-1.30256 -0.8478,-0.84787 -3.5797,-0.14971 -7.826,2 -7.7293,3.91308 -10.2884,4.1033 -13.0401,0.96923 -3.2283,-3.677 -6.9459,-20.31197 -4.9531,-22.16344 1.2441,-1.15593 1.4508,-0.81013 0.8947,1.49678 -0.3978,1.65 -0.1794,3 0.4852,3 0.6647,0 1.2276,-1.05 1.251,-2.33334 0.082,-4.48735 3.6981,-7.53585 8.7696,-7.3921 6.5734,0.18633 9.4098,3.05877 3.0204,3.05877 -11.2475,0 -14.6033,16.48695 -4.3104,21.17671 2.6729,1.21783 4.0807,0.94149 8.1863,-1.60682 2.7271,-1.69268 8.3334,-4.12064 12.4585,-5.39548 6.6236,-2.04697 8.0262,-2.09782 12,-0.43512 l 4.4998,1.88277 -7.3333,-0.12456 c -8.2864,-0.14074 -14.6667,1.24896 -14.6667,3.19457 0,1.78896 4.9587,1.65942 6.0825,-0.1589 1.2249,-1.98193 14.7648,-0.24648 18.8231,2.41263 2.8132,1.8433 3.6908,1.49814 3.2523,-1.27914 -0.5475,-3.46731 5.7599,2.63024 10.1931,9.85399 2.7383,4.46199 4.3534,13.55278 2.7013,15.20485 -0.4777,0.4777 -0.5665,1.65572 -0.1973,2.61784 0.9461,2.46554 -3.0095,9.60907 -6.5494,11.82778 -4.0569,2.5427 -12.5539,3.91779 -13.6136,2.20312 -0.8738,-1.41381 0.7892,-1.87652 5.1082,-1.42135 4.2948,0.45262 10.0887,-2.78823 12.0642,-6.74822 1.5957,-3.1987 1.6306,-4.87089 0.2137,-10.24193 -0.9313,-3.5305 -2.4781,-7.89141 -3.4373,-9.69091 -1.6462,-3.08836 -1.6074,-3.15968 0.6926,-1.27183 2.2836,1.87446 2.3349,1.80935 0.818,-1.03735 -0.8902,-1.67054 -2.1515,-2.70792 -2.803,-2.30529 -0.6515,0.40263 -1.6714,-0.0635 -2.2664,-1.03578 -2.0417,-3.33592 -10.938,-7.847 -13.7284,-6.96133 -1.6537,0.52486 -2.6869,0.24994 -2.6869,-0.71495 0,-2.87434 -7.0659,0.0707 -15.5875,6.49688 l -8.2542,6.22448 0.096,11.0319 c 0.073,8.428 0.5762,11.30052 2.1298,12.16995 1.1851,0.66323 2.1044,3.17698 2.2033,6.02505 0.1085,3.1243 1.4759,6.52402 3.791,9.42549 1.9917,2.49616 3.6254,5.02052 3.6304,5.60971 0.011,1.31408 6.655,5.82677 14.547,9.88071 4.2776,2.19732 8.9301,3.18488 17,3.60844 6.1108,0.32073 11.1106,0.98519 11.1106,1.47657 0,0.49137 -4.862,1.05915 -10.8044,1.26172 -6.6535,0.22681 -10.5007,-0.12329 -10.0136,-0.91128 z m 52.8181,-0.43359 c -3.3,-0.47043 7.6497,-0.77043 24.3327,-0.66667 16.683,0.10377 30.333,0.65058 30.3333,1.21514 7e-4,1.18617 -45.7153,0.7275 -54.666,-0.54847 z m 62,-0.71571 c 1.4666,-0.39376 3.5142,-1.40136 4.5501,-2.23912 1.4803,-1.19711 1.7437,-1.09503 1.2305,0.47682 -0.3591,1.1 -2.4067,2.1076 -4.5501,2.23911 -2.4485,0.15024 -2.9059,-0.027 -1.2305,-0.47681 z m 10.3373,-3.28334 c -0.8934,-2.36671 -1.3515,-4.57589 -1.0181,-4.90929 0.7957,-0.79576 3.5523,6.48256 3.0387,8.02333 -0.218,0.65399 -1.1273,-0.74733 -2.0206,-3.11404 z m 60.996,2.85437 c 1.1,-0.71088 2.6,-1.2925 3.3333,-1.2925 0.7334,0 0.4334,0.58162 -0.6666,1.2925 -1.1,0.71087 -2.6,1.2925 -3.3334,1.2925 -0.7333,0 -0.4333,-0.58163 0.6667,-1.2925 z m -56.7332,-2.51097 c -0.3301,-0.33008 -0.6001,-3.54414 -0.6001,-7.14235 0,-5.47668 -0.3746,-6.47007 -2.2999,-6.0993 -1.2649,0.2436 -2.9482,1.74338 -3.7406,3.33284 -1.3992,2.80641 -1.4868,2.81623 -3.0335,0.33962 -0.876,-1.40268 -1.5927,-3.385 -1.5927,-4.40515 0,-3.78145 -4.009,-5.23553 -14.37,-5.21208 l -10.2967,0.0233 9.3334,-0.9002 c 10.1361,-0.97762 16.6666,0.37422 16.6666,3.45007 0,1.07154 0.6098,1.57139 1.3551,1.11077 0.7453,-0.46062 1.0099,-1.39603 0.588,-2.07869 -0.4219,-0.68266 0.4329,-1.2412 1.8996,-1.2412 1.4666,0 3.0947,-0.69271 3.618,-1.53935 0.5894,-0.95373 0.3657,-1.17741 -0.588,-0.58797 -0.9121,0.56373 -1.5393,0.1044 -1.5393,-1.12733 0,-1.14328 -0.016,-2.49108 -0.037,-2.99512 -0.02,-0.50404 0.8173,-1.04177 1.861,-1.19496 1.1319,-0.16612 2.2093,1.27977 2.67,3.58311 0.5469,2.73436 1.5605,3.86162 3.4723,3.86162 1.485,0 2.7,-0.6 2.7,-1.33334 0,-0.75751 3.311,-1.24685 7.6667,-1.13307 l 7.6667,0.20026 -5.9801,0.79974 -5.98,0.79974 0.4055,5.53102 c 0.2231,3.04206 -0.2359,5.92747 -1.0199,6.41202 -2.1694,1.34074 -1.7007,3.4122 0.5745,2.53913 1.1,-0.42211 2,-0.10328 2,0.70851 0,0.81179 -0.8358,1.47599 -1.8574,1.47599 -1.0215,0 -2.1893,0.86513 -2.5951,1.92252 -0.6687,1.74262 -5.4813,2.36595 -6.9474,0.89984 z m 5.9277,-6.26917 c 1.491,-5.39975 -0.1909,-11.77798 -2.8694,-10.88156 -1.4852,0.49707 -1.6974,3.01838 -1.122,13.32837 0.224,4.01402 2.6116,2.55039 3.9914,-2.44681 z m -247.8612,5.21268 c 0,-1.10714 8.2841,-4.41432 9.3725,-3.74167 3.077,1.90168 0.998,3.9793 -4.0434,4.04076 -2.931,0.0357 -5.3291,-0.0989 -5.3291,-0.29909 z m 160.9327,-3.55345 c -0.3773,-0.98317 -0.1507,-2.63317 0.5036,-3.66667 0.8657,-1.36756 1.1951,-0.88094 1.21,1.78758 0.022,3.98164 -0.6317,4.69859 -1.7136,1.87909 z m -23.5993,-10.4902 c 0,-5.53056 -0.34,-12.08056 -0.7555,-14.55556 -0.5646,-3.3632 -0.4106,-3.96627 0.6095,-2.38725 1.4923,2.31002 2.3385,24.80578 0.984,26.16027 -0.4609,0.46095 -0.838,-3.68691 -0.838,-9.21746 z m 19.4444,5.94444 c -0.55,-0.55 -1.6568,-1 -2.4596,-1 -1.4306,0 -4.0803,-7.34896 -3.0289,-8.40037 0.9566,-0.95665 5.6889,4.3214 6.6351,7.40037 0.9522,3.09833 0.5876,3.73423 -1.1466,2 z m 3.8927,-6.98806 c -0.4634,-1.46011 -0.5066,-3.19849 -0.096,-3.86306 1.1195,-1.81144 -0.7189,-9.55044 -2.0704,-8.71521 -0.644,0.39804 -1.1709,-0.49287 -1.1709,-1.9798 0,-1.8139 0.6361,-2.45938 1.9333,-1.96161 1.536,0.58941 2.0312,-0.99487 2.4098,-7.70852 0.262,-4.64772 0.592,-0.5004 0.7333,9.21627 0.1413,9.71666 0,17.66666 -0.3199,17.66666 -0.3173,0 -0.956,-1.19463 -1.4194,-2.65473 z m 7.6096,-3.6786 c 0.2762,-0.55 1.8641,-3.98796 3.5285,-7.63991 1.6644,-3.65195 3.6259,-7.01056 4.3589,-7.46357 0.7329,-0.45301 1.387,-2.73645 1.4535,-5.07431 0.067,-2.33785 0.7203,-4.62113 1.453,-5.07395 0.8529,-0.52709 1.0234,1.04909 0.4741,4.38088 -1.4588,8.84829 -3.6359,15.30731 -4.8967,14.52806 -0.6625,-0.40941 -2.1454,1.07523 -3.2955,3.2992 -1.1501,2.22398 -2.4256,4.0436 -2.8346,4.0436 -0.4089,0 -0.5175,-0.45 -0.2412,-1 z m -13.6134,-2.33334 c 0,-1.1 0.5358,-2 1.1907,-2 0.6548,0 1.536,0.9 1.9581,2 0.4675,1.21829 0,2 -1.1907,2 -1.0769,0 -1.9581,-0.9 -1.9581,-2 z m 88.6667,-2.79398 c 0,-1.76331 0.45,-3.20602 1,-3.20602 0.55,0 1,1.16459 1,2.58798 0,1.42339 -0.45,2.86609 -1,3.20601 -0.55,0.33992 -1,-0.82467 -1,-2.58797 z m -12.0318,-1.36475 c 1.1873,-1.1873 2.4903,-1.82722 2.8954,-1.42204 1.187,1.18694 -0.8437,3.58077 -3.0376,3.58077 -1.7413,0 -1.7218,-0.29465 0.1422,-2.15873 z m 15.96,0.70922 c -0.4927,-0.79723 -0.3631,-1.98225 0.288,-2.63338 0.6896,-0.68962 1.8705,-0.0845 2.8285,1.44951 1.3536,2.1675 1.3026,2.63338 -0.2881,2.63338 -1.0629,0 -2.3357,-0.65227 -2.8284,-1.44951 z m -144.5693,-1.85293 c -2.1075,-2.53944 -1.002,-4.04316 1.8139,-2.46728 1.239,0.69337 1.6246,1.81283 0.9823,2.852 -0.8336,1.34888 -1.4249,1.26753 -2.7962,-0.38472 z m -47.6683,-3.36422 c -1.2558,-1.46667 -2.9858,-2.66667 -3.8443,-2.66667 -1.8058,0 -3.65,-3.99088 -2.3987,-5.19084 0.4641,-0.44503 1.7514,0.54084 2.8607,2.19084 2.72,4.04582 6.9533,3.77941 10.5936,-0.66666 2.8728,-3.50867 3.0042,-3.54065 3.0501,-0.74228 0.026,1.60842 -1.2557,3.83749 -2.849,4.95349 -2.7417,1.92035 -2.7638,2.08016 -0.4133,2.98215 1.494,0.57331 2.6926,0.3262 3.0081,-0.62015 0.2884,-0.86527 1.4891,-1.57321 2.6681,-1.57321 1.7676,0 1.6896,0.34346 -0.4444,1.95759 -3.7038,2.80136 -9.5535,2.50279 -12.2309,-0.62426 z m 95.5598,1 c -0.046,-0.91667 -0.058,-16.93889 -0.027,-35.60493 0.039,-23.75834 -0.3945,-34.21637 -1.4447,-34.86543 -2.1388,-1.32185 -0.2545,-5.32142 2.8951,-6.14506 1.4629,-0.38258 2.6599,-1.54672 2.6599,-2.587 0,-1.48287 -0.5802,-1.58086 -2.6864,-0.45366 -2.1765,1.1648 -2.8603,0.98387 -3.6019,-0.95308 -0.5034,-1.31496 -2.1445,-3.42087 -3.6468,-4.67981 -2.6386,-2.21109 -2.4492,-2.29048 5.5675,-2.33333 7.7784,-0.0416 8.4239,-0.28554 10.2868,-3.88813 1.7854,-3.45247 8.028,-6.65353 9.705,-4.9765 1.3937,1.39375 -1.3206,3.55139 -3.5697,2.83755 -1.865,-0.59191 -2.3878,-0.0199 -2.3878,2.61243 0,3.42865 1.5073,4.45212 3,2.03696 0.4532,-0.73334 1.6886,-1.33334 2.7453,-1.33334 1.0568,0 1.9214,0.6 1.9214,1.33334 0,0.73333 -1.1596,1.33333 -2.5769,1.33333 -1.4172,0 -2.8668,1.05 -3.2212,2.33333 -1.5291,5.53627 -2.495,16.4578 -2.3717,26.81458 0.1158,9.72059 -0.1209,10.93736 -1.8487,9.50341 -1.0899,-0.90448 -1.9815,-2.62672 -1.9815,-3.82719 0,-1.20047 -1.2,-2.93209 -2.6667,-3.84804 -3.0237,-1.88833 -3.3303,-1.33579 -1.1742,2.11655 1.1718,1.87644 0.8854,3.57964 -1.3334,7.92879 -1.5541,3.04645 -2.8162,6.0129 -2.8045,6.59211 0.012,0.57922 1.8118,3.08443 4,5.56713 4.0706,4.6182 4.9396,7.40145 2.7362,8.76324 -0.6835,0.42238 -1.4335,-0.88708 -1.6667,-2.90991 -0.4937,-4.28139 -5.0907,-6.14624 -5.0907,-2.0651 0,1.37377 0.588,3.08583 1.3068,3.80457 0.817,0.81703 0.8617,3.04079 0.1193,5.93333 -1.2681,4.94084 -1.2026,13.0967 0.1228,15.29319 0.8357,1.38488 -0.9267,7.33333 -2.1727,7.33333 -0.3902,0 -0.7469,-0.75 -0.7925,-1.66666 z m 8.0829,-71.66666 c 0,-0.73334 -0.6,-1.33334 -1.3333,-1.33334 -0.7334,0 -1.3334,0.6 -1.3334,1.33334 0,0.73333 0.6,1.33333 1.3334,1.33333 0.7333,0 1.3333,-0.6 1.3333,-1.33333 z m 68.8093,71.22428 c -0.4451,-1.15998 -0.7713,-4.00998 -0.7248,-6.33334 0.069,-3.46415 0.2736,-3.74443 1.1351,-1.55761 2.0372,5.1712 2.8171,9.99999 1.6151,9.99999 -0.6688,0 -1.5803,-0.94907 -2.0254,-2.10904 z m 10.712,-2.16977 c -0.45,-1.67998 -0.8264,-5.30452 -0.8364,-8.05452 -0.015,-4.10504 -0.4955,-5 -2.6849,-5 -1.4667,0 -2.6667,0.7 -2.6667,1.55556 0,0.85555 -0.3224,1.23309 -0.7165,0.83897 -0.3942,-0.39413 0.031,-2.3564 0.9437,-4.36062 1.4776,-3.24297 2.2096,-3.57036 6.6507,-2.97468 3.0103,0.40376 5.1842,0.088 5.4788,-0.79593 0.351,-1.05306 0.7481,-1.04512 1.4115,0.0282 0.5076,0.82142 -0.015,2.43174 -1.162,3.57848 -1.2647,1.26469 -2.2616,5.09111 -2.534,9.72585 -0.4666,7.94081 -2.4664,10.75124 -3.8842,5.45867 z m 14.6178,-5.17626 c -2.5855,-5.18281 -2.574,-4.75941 -0.1551,-5.68762 1.0912,-0.41874 1.8928,-0.33293 1.7813,0.19068 -0.1115,0.52361 0.2678,2.62996 0.8428,4.68078 1.5023,5.35803 0.038,5.84201 -2.469,0.81616 z m -96.0975,-4.26909 c -0.5707,-1.31497 -0.6636,-2.76497 -0.2063,-3.22223 1.354,-1.35399 2.4454,0.54793 1.8222,3.17537 -0.5524,2.32926 -0.6243,2.33134 -1.6159,0.0469 z m -94.9199,-4.9425 c -0.8045,-3.3 -1.9002,-7.05 -2.4349,-8.33333 -0.6837,-1.64113 -0.3544,-2.33334 1.1101,-2.33334 2.3494,0 4.0408,6.61336 3.2708,12.78942 -0.4405,3.53366 -0.6129,3.34554 -1.946,-2.12275 z m 99.545,-10.61975 c 0,-6.58848 -0.4576,-8.19797 -2.6667,-9.38025 -1.4667,-0.78493 -2.6667,-2.30605 -2.6667,-3.38024 0,-3.02686 2.2507,-2.30309 3.2555,1.04691 0.8744,2.91477 0.9329,2.92424 2.0618,0.33333 0.7893,-1.8113 1.192,0.86171 1.2557,8.33333 0.052,6.05 -0.2063,11 -0.573,11 -0.3666,0 -0.6666,-3.57889 -0.6666,-7.95308 z m 14.3832,-1.45605 c -1.1615,-4.72498 -1.9084,-8.80536 -1.6598,-9.06751 0.7742,-0.8163 4.844,14.441 4.293,16.09395 -0.2868,0.86043 -1.4718,-2.30147 -2.6332,-7.02644 z m -109.4811,5.74247 c -0.3237,-0.55 -0.9874,-3.1 -1.4748,-5.66667 -0.8472,-4.46077 -0.7912,-4.54901 1.2706,-2 1.1863,1.46667 2.7882,2.49213 3.5597,2.27881 0.7912,-0.21874 1.0408,0.55555 0.5726,1.77572 -0.4566,1.18996 -0.8302,2.7145 -0.8302,3.38785 0,1.47037 -2.2679,1.63456 -3.0979,0.22429 z m 169.7645,-1.52545 c 0,-0.51767 0.7059,-1.64711 1.5687,-2.50987 0.8628,-0.86276 1.9705,-7.43276 2.4615,-14.6 0.886,-12.9302 1.1021,-12.34786 2.0915,5.63532 0.4881,8.87082 0.3491,9.4097 -2.8041,10.87455 -1.8246,0.84767 -3.3176,1.11767 -3.3176,0.6 z m -177.8184,-7.46689 c 0.4205,-1.09579 1.3114,-1.65433 1.9799,-1.24121 1.3981,0.86409 0.2757,3.23355 -1.5317,3.23355 -0.667,0 -0.8687,-0.89656 -0.4482,-1.99234 z m 76.6985,-9.71617 c 0.1482,-5.29628 0.3808,-6.19967 0.7617,-2.95816 0.3016,2.56667 1.1056,5.23667 1.7866,5.93333 1.7687,1.80924 1.5349,3.00089 -0.7617,3.88217 -1.648,0.63241 -1.9625,-0.57439 -1.7866,-6.85734 z m -158.0708,4.26612 c -2.2682,-5.91096 -0.035,-16.82112 6.0497,-29.55022 3.046,-6.37262 4.5588,-7.79684 5.6815,-5.34903 0.4225,0.92124 0.4701,0.44076 0.1057,-1.06773 -0.4515,-1.86893 0.6144,-3.96607 3.3456,-6.58279 2.2045,-2.11204 4.0082,-4.5938 4.0082,-5.51502 0,-0.92122 1.05,-2.45896 2.3334,-3.41721 1.2833,-0.95825 2.4134,-2.77304 2.5113,-4.03286 0.098,-1.25983 0.5662,-3.95983 1.0405,-6 0.6381,-2.74433 0.5104,-3.18907 -0.4909,-1.70941 -1.2031,1.77777 -1.351,1.77777 -1.3315,0 0.073,-6.66497 12.4875,-11.99091 18.6039,-7.98145 1.4286,0.93652 0.7873,1.07857 -2.245,0.49726 -3.4202,-0.65568 -4.9097,-0.14898 -7.6666,2.60792 -1.882,1.88195 -3.4217,4.40282 -3.4217,5.60194 0,2.95679 5.2974,7.17548 9.0786,7.22997 1.7048,0.0246 2.711,0.63939 2.2547,1.37769 -0.4808,0.7779 0.875,1.33333 3.2546,1.33333 2.2433,0 4.0787,-0.6 4.0787,-1.33333 0,-0.73333 1.95,-1.29116 4.3334,-1.23962 3.6313,0.0785 3.9013,0.27934 1.6666,1.23962 -1.4666,0.63025 -2.0666,1.26318 -1.3333,1.40651 0.7333,0.14333 -1.0667,0.74198 -4,1.33034 -12.3093,2.46894 -23.325,6.03974 -23.329,7.56224 0,0.89784 -1.7153,2.51719 -3.8064,3.59856 -9.8939,5.11631 -18.9463,21.23319 -19.1281,34.05556 -0.1213,8.55827 -0.3135,9.27423 -1.5939,5.93773 z m 24.5657,-48.32151 c -0.7819,-0.26064 -2.5912,0.92962 -4.0206,2.64501 -4.064,4.87701 -3.1319,6.04336 1.3772,1.72333 2.2358,-2.14196 3.4253,-4.10771 2.6434,-4.36834 z m 32.0636,46.83259 c -0.1272,-5.15525 4.0057,-9.98424 10.427,-12.18326 5.4173,-1.85516 5.834,-1.89006 4.9206,-0.41219 -0.9954,1.61059 7.6691,1.1478 8.8601,-0.47324 0.5597,-0.7619 0.9883,-0.38006 1,0.89095 0.034,3.71701 -1.4881,6.44238 -3.5983,6.44238 -1.2759,0 -1.707,0.76353 -1.1906,2.10905 0.4451,1.15998 0.8093,2.35998 0.8093,2.66667 0,1.317 2.6481,0.38565 4.6796,-1.64582 2.049,-2.04902 2.1725,-1.93944 1.7619,1.56366 -0.3226,2.75258 -1.217,3.8222 -3.3209,3.97172 -2.1442,0.15238 -3.5973,-1.23282 -5.6911,-5.42524 -1.8721,-3.74857 -3.9646,-5.91923 -6.2618,-6.49579 -4.5021,-1.12997 -9.546,2.17308 -10.5965,6.93928 -1.3463,6.10827 -1.6895,6.49959 -1.7993,2.05183 z m 49.46,-9.53059 c 3.337,-4.08352 4.8736,-3.42855 2.4743,1.05465 -0.8067,1.50732 -2.3912,2.74058 -3.5212,2.74058 -1.6052,0 -1.3763,-0.8299 1.0469,-3.79523 z m 2.4348,-7.45941 c 0,-1.14328 0.6,-2.07869 1.3333,-2.07869 0.7333,0 1.3333,0.56459 1.3333,1.25464 0,0.69006 -0.6,1.62547 -1.3333,2.07869 -0.7333,0.45323 -1.3333,-0.11136 -1.3333,-1.25464 z m 155.1042,-8.07869 c 0.01,-5.13333 0.2469,-7.06995 0.5355,-4.30359 0.2886,2.76635 0.2838,6.96635 -0.011,9.33333 -0.2945,2.36698 -0.5307,0.10359 -0.5247,-5.02974 z m -185.1177,5.97825 c -0.4606,-0.7453 -1.396,-1.00988 -2.0787,-0.58798 -0.6826,0.42191 -1.917,0.3494 -2.7431,-0.16113 -0.9045,-0.55902 0.1562,-1.6254 2.6667,-2.68099 4.1546,-1.74687 4.9406,-3.72421 4.3255,-10.88148 -0.1419,-1.65 0.3648,-3 1.1259,-3 0.7611,0 1.3838,-0.9 1.3838,-2 0,-2.43141 -3.4568,-2.67207 -4.3655,-0.30393 -0.789,2.05607 -7.1789,2.78638 -8.3138,0.95019 -0.4462,-0.72211 0.424,-1.31293 1.934,-1.31293 1.5099,0 2.7453,-0.55827 2.7453,-1.2406 0,-0.68233 1.35,-1.47676 3,-1.76541 2.8895,-0.50547 2.9017,-0.5655 0.3334,-1.62873 -1.4667,-0.60716 -3.7004,-1.99098 -4.9639,-3.07516 -1.5024,-1.28927 -3.6935,-1.69197 -6.3333,-1.164 -4.1706,0.83411 -4.8168,0.17021 -2.8521,-2.93022 0.9345,-1.47484 2.3271,-1.28044 7.6296,1.06513 3.5675,1.57809 7.7904,4.09424 9.3841,5.59146 3.3348,3.13292 7.8898,2.79193 7.617,-0.57022 -0.1144,-1.41078 0.7724,-2.28225 2.3226,-2.28225 2.4052,0 2.4181,0.23161 0.3156,5.66667 -1.2056,3.11666 -3.3008,6.90533 -4.6559,8.41927 -1.355,1.51393 -2.4637,4.70678 -2.4637,7.09523 0,5.6024 -3.975,10.09538 -6.0135,6.79708 z m 4.6801,-4.28416 c 0,-0.78041 -0.8472,-0.65082 -2,0.30591 -1.1,0.91292 -2,1.86755 -2,2.12141 0,0.25386 0.9,0.1162 2,-0.30591 1.1,-0.42211 2,-1.37674 2,-2.12141 z m 4,-1.60019 c 0,-1.70539 0.9227,-3.86646 2.0504,-4.80238 4.2288,-3.50962 10.649,-12.51188 8.2729,-11.60007 -1.5589,0.5982 -2.3233,0.24726 -2.3233,-1.06663 0,-1.07698 0.5596,-1.95815 1.2435,-1.95815 1.8334,0 3.2677,-5.52669 1.6877,-6.50319 -1.9881,-1.2287 -0.2874,-8.16348 2.002,-8.16348 1.0757,0 1.6935,-0.75 1.3729,-1.66666 -0.3205,-0.91667 -1.5022,-1.50605 -2.626,-1.30973 -1.1238,0.19632 -2.3928,-0.55368 -2.8199,-1.66666 -1.0523,-2.74241 -6.1724,-2.56214 -8.2585,0.29077 -1.1437,1.56402 -1.2842,3.07703 -0.4334,4.66666 0.8127,1.51858 0.7863,2.35229 -0.074,2.35229 -2.1396,0 -4.0241,-4.64543 -3.1854,-7.85243 0.4957,-1.89588 2.139,-3.22373 4.5982,-3.71556 2.5047,-0.50095 3.8267,-1.59062 3.8267,-3.15423 0,-1.31389 0.6069,-2.5912 1.3487,-2.83847 0.9055,-0.30181 0.914,-2.85814 0.026,-7.77778 -2.6721,-14.80495 -2.8256,-18.66153 -0.7428,-18.66153 1.0675,0 2.592,1.21681 3.388,2.70401 0.7959,1.48721 2.0268,2.34575 2.7353,1.90787 0.7085,-0.43788 0.9436,-1.35363 0.5225,-2.035 -0.4211,-0.68138 0.1325,-2.52112 1.2302,-4.08831 1.8686,-2.66783 1.9783,-2.39178 1.7214,4.33099 -0.1641,4.29449 0.6649,9.59196 2.0627,13.18044 l 2.3372,6 -0.214,-7.77752 c -0.138,-5.01563 0.3819,-8.14575 1.4638,-8.81445 1.2785,-0.79015 1.1752,-1.22978 -0.434,-1.8473 -4.6753,-1.79409 -1.5795,-2.89051 7.9802,-2.8263 7.3023,0.049 10.4267,0.60148 11.3115,2 1.6479,2.60487 1.5961,12.90246 -0.07,13.93224 -0.7765,0.47988 -1.3334,-0.85773 -1.3334,-3.20271 0,-6.41356 -8.6309,-12.50325 -11.3911,-8.03719 -0.4849,0.78473 -2.1704,1.94669 -3.7453,2.58215 -2.3522,0.94904 -2.4385,1.17048 -0.4833,1.2399 1.9345,0.0687 2.1218,0.56745 1,2.66353 -1.48,2.7653 -1.8498,10.6459 -0.6468,13.78094 0.4421,1.15204 1.931,1.68246 3.7478,1.33516 3.9517,-0.75543 7.3914,3.0115 4.8956,5.36139 -1.3376,1.2593 -1.8434,1.24699 -2.3213,-0.0565 -1.0615,-2.89493 -2.8117,-1.81245 -3.7143,2.29729 -0.8199,3.73291 -8.2566,11.56515 -9.6542,10.16761 -0.3545,-0.35458 0.6208,-2.42186 2.1675,-4.59396 3.3256,-4.67036 3.5193,-6.71648 0.8261,-8.72395 -1.0923,-0.81417 -2.2086,-4.01788 -2.4805,-7.11933 -0.519,-5.91975 -2.6891,-9.69432 -5.5734,-9.69432 -2.1083,0 -3.277,14.39421 -1.2934,15.93195 0.7333,0.56853 2.9913,1.42987 5.0179,1.91409 3.2171,0.76872 3.5744,1.3418 2.8161,4.51718 -0.4776,2.00023 -1.3213,4.23678 -1.8748,4.97011 -1.6008,2.12079 -2.1163,13.93558 -0.6353,14.55828 0.7385,0.31049 0.5573,0.61189 -0.4026,0.66979 -0.96,0.0579 -1.4241,0.62507 -1.0315,1.2604 0.3927,0.63532 -0.4719,2.22832 -1.9213,3.53998 -1.4494,1.31167 -2.6352,2.91913 -2.6352,3.57214 0,0.65301 -1.5115,2.69875 -3.3588,4.5461 -1.8474,1.84735 -2.9375,4.04053 -2.4226,4.87372 0.6871,1.1118 1.0783,1.08889 1.4699,-0.0861 0.2936,-0.88054 1.8037,-1.60099 3.3559,-1.60099 3.626,0 1.6212,1.85817 -4.0444,3.74867 -4.0612,1.35512 -4.3333,1.25119 -4.3333,-1.65477 z m 9.9284,-69.37983 c -3.7647,-2.84716 -5.8018,-2.40948 -2.3184,0.49811 1.6188,1.35123 2.7626,2.75627 2.5417,3.1223 -0.2209,0.36604 0.2223,0.14277 0.985,-0.49615 0.9179,-0.76894 0.5094,-1.82517 -1.2083,-3.12426 z m 6.0716,71.28593 c -1.7092,-1.10457 -1.6607,-1.29547 0.3334,-1.31292 1.2833,-0.0112 2.3333,0.57959 2.3333,1.31292 0,1.62615 -0.1504,1.62615 -2.6667,0 z m 54.6667,-1.25464 c 0,-1.42339 0.6,-2.9588 1.3333,-3.41203 0.7562,-0.46736 1.3334,0.65282 1.3334,2.58798 0,1.87661 -0.6,3.41202 -1.3334,3.41202 -0.7333,0 -1.3333,-1.16459 -1.3333,-2.58797 z m -95.5699,0.24296 c -3.8271,-0.63507 -5.3334,-2.63081 -6.4349,-8.52574 -0.786,-4.20622 -0.5268,-4.99243 1.9,-5.76266 1.557,-0.49417 2.4124,-1.53556 1.9181,-2.33526 -0.4906,-0.79384 -0.3493,-1.12109 0.314,-0.72722 2.2387,1.32931 7.5285,-1.54053 6.7206,-3.64602 -0.8038,-2.09463 1.3496,-2.5994 5.043,-1.1821 4.0294,1.5462 2.2354,4.47231 -3.283,5.35473 -6.8357,1.09307 -10.1275,6.1546 -7.5587,11.62256 0.8896,1.89356 2.8175,3.61696 4.2841,3.82976 1.4667,0.21281 2.0667,0.71695 1.3334,1.12031 -0.7334,0.40337 -2.6398,0.51661 -4.2366,0.25164 z m 44.7448,-8.79744 c 0.8631,-1.03994 1.1451,-3.59094 0.6633,-6 -0.4842,-2.42069 -0.2857,-4.19088 0.4699,-4.19088 0.7194,0 1.1784,2.25 1.0198,5 -0.3922,6.80359 -0.4527,7 -2.1578,7 -1.1042,0 -1.103,-0.47435 0,-1.80912 z m 48.8251,-15.8558 c -6.7988,-4.94327 -7.7636,-7.96406 -3.3058,-10.34982 3.4557,-1.84946 6.0207,-0.45322 3.888,2.11647 -2.2624,2.72604 -0.5065,5.93631 3.0396,5.55716 2.2251,-0.2379 3.0449,0.36249 3.0449,2.23 0,3.64918 -2.0708,3.78777 -6.6667,0.44619 z m -101.3333,-1.00174 c -0.9747,-1.57705 0.33,-1.57705 4,0 2.5709,1.10478 2.5618,1.14926 -0.2547,1.23961 -1.6067,0.0516 -3.2921,-0.50628 -3.7453,-1.23961 z m 115.1031,-3.34067 c -0.4933,-0.49361 -0.588,-2.80086 -0.2105,-5.12722 0.5159,-3.17867 -0.01,-4.85707 -2.1031,-6.75425 -3.1743,-2.87269 -3.8669,-5.99852 -0.7573,-3.41779 3.3163,2.75232 3.9139,0.33438 1.182,-4.78301 -3.3677,-6.30844 -5.5487,-8.10931 -7.4809,-6.17706 -1.0938,1.09375 -1.0455,2.01896 0.1826,3.49866 0.9182,1.10642 1.4355,2.71378 1.1494,3.57191 -0.6658,1.99734 -4.3568,-3.6395 -5.5465,-8.47057 -0.7764,-3.15252 -0.4965,-3.66667 1.9957,-3.66667 2.8256,0 2.8371,-0.0681 0.4569,-2.69817 -1.8719,-2.06847 -2.0757,-3.06423 -0.8733,-4.26667 1.2025,-1.20243 1.5685,-1.07528 1.5685,0.54483 0,1.16232 1.6378,3.18641 3.6395,4.49797 2.148,1.40742 2.9676,2.60859 2,2.93112 -0.9017,0.30056 -1.6395,1.16067 -1.6395,1.91135 0,0.75068 0.8269,1.04757 1.8375,0.65975 1.0107,-0.38782 2.4935,-0.0492 3.2951,0.75244 1.0546,1.05453 2.2323,0.4727 4.2593,-2.10419 3.3877,-4.30678 10.3393,-4.87539 13.7348,-1.12344 2.823,3.11943 2.9001,13.0779 0.1476,19.07526 l -2.059,4.48642 0.7841,-4.9892 c 0.7687,-4.89138 0.7177,-4.96398 -2.5994,-3.7028 -7.0698,2.68792 -9.9456,5.54008 -11.0113,10.92084 -0.5805,2.93038 -1.4589,4.9241 -1.9522,4.43049 z m 11.3615,-18.7556 c 4.631,-5.57279 2.8196,-6.08599 -2.3683,-0.67099 -2.0547,2.14468 -4.567,3.58048 -5.5828,3.19068 -1.0158,-0.3898 -1.8469,-0.0445 -1.8469,0.76726 0,3.1623 6.1544,1.09769 9.798,-3.28695 z m -0.3223,-4.41758 c 2.735,-2.21464 2.8799,-2.78441 1.2179,-4.78706 -1.7743,-2.13792 -1.99,-2.13184 -3.6234,0.10201 -1.6466,2.25181 -1.739,2.24074 -1.7793,-0.21293 -0.041,-2.52923 -0.086,-2.53084 -1.9483,-0.0707 -1.3713,1.81129 -1.5332,3.21392 -0.5773,5 1.6698,3.12004 2.8253,3.11464 6.7104,-0.0314 z m -114.7806,-7.65744 c -3.1586,-3.59747 -3.8056,-5.15731 -2.6945,-6.49611 1.0114,-1.21867 1.0312,-2.02825 0.064,-2.62592 -0.7689,-0.47523 -1.3981,-1.76406 -1.3981,-2.86406 0,-1.1 0.6,-1.62918 1.3334,-1.17595 0.7333,0.45322 1.3333,-0.11137 1.3333,-1.25465 0,-1.14328 0.8812,-2.07869 1.9582,-2.07869 1.0975,0 1.6541,-0.79228 1.2663,-1.80277 -0.3832,-0.99879 0.8436,-2.8088 2.751,-4.05858 1.8936,-1.24069 3.1419,-2.74277 2.774,-3.33795 -1.5266,-2.47014 5.9445,0.38986 8.711,3.33461 1.6524,1.75891 4.1885,3.19803 5.6358,3.19803 2.1126,0 1.7381,-0.65637 -1.8991,-3.32895 -2.4918,-1.83092 -7.2305,-4.59783 -10.5305,-6.14868 -3.3,-1.55084 -6.966,-4.03685 -8.1466,-5.52445 -1.987,-2.50362 -1.9622,-2.88913 0.3333,-5.18466 2.9723,-2.97225 6.886,-3.20383 9.0981,-0.53834 2.5867,3.1168 0.2284,5.30114 -2.782,2.57677 -3.2989,-2.98539 -6.6507,-0.57632 -3.8662,2.77876 2.0415,2.45991 14.0974,8.70288 16.8063,8.70288 2.5216,0 2.4304,-4.84081 -0.1096,-5.8155 -3.2141,-1.23337 -2.4884,-9.2013 1.2324,-13.53147 l 3.2324,-3.76175 0.4342,4.44972 c 0.3367,3.44975 1.4455,5.01238 4.9339,6.95345 5.0576,2.81426 8.8278,2.66998 8.8314,-0.33795 0,-2.82398 5.3309,-9.28983 7.6543,-9.28983 2.1728,0 6.5854,-4.37086 6.2253,-6.16646 -0.3152,-1.57171 1.6478,-9.83354 2.3364,-9.83354 0.3008,0 2.0258,0.96901 3.8333,2.15335 3.5802,2.34585 4.5132,5.26937 1.2864,4.03115 -1.1,-0.42211 -2,-0.22985 -2,0.42724 0,1.68928 6.6545,6.72159 8.8883,6.72159 1.0242,0 2.1842,0.83945 2.5779,1.86545 0.436,1.13608 2.5023,1.81481 5.2848,1.73594 3.0131,-0.0854 5.1815,0.70838 6.3681,2.33116 1.2959,1.77217 2.7455,2.22321 5.1808,1.61198 3.7073,-0.93047 5.7541,-5.62983 3.1422,-7.21434 -0.9037,-0.54827 -2.0437,-2.08488 -2.5332,-3.4147 -0.4895,-1.32981 -1.4874,-2.04865 -2.2175,-1.59741 -0.7653,0.47297 -0.9925,-0.0527 -0.5364,-1.24117 0.4351,-1.13387 1.3282,-1.72963 1.9847,-1.32389 0.6565,0.40573 1.1936,0.18549 1.1936,-0.48943 0,-0.67492 1.5,-0.94039 3.3334,-0.58992 1.8333,0.35046 3.3333,1.16726 3.3333,1.8151 0,0.64785 1.2685,1.1779 2.8189,1.1779 2.9278,0 13.0281,-10.00297 13.1264,-13 0.065,-1.98449 -3.4351,-2.23747 -4.612,-0.33333 -1.1743,1.90011 -3.6628,1.65512 -3.0122,-0.29656 0.2988,-0.89644 1.9988,-1.97728 3.7778,-2.40186 4.0084,-0.9567 9.2574,4.54213 6.7394,7.06018 -2.3754,2.37532 -1.7891,3.42842 2.1617,3.88301 3.0553,0.35154 3.7363,1.14445 4.0845,4.75523 0.4668,4.84201 -2.3335,5.94144 -5.9421,2.33287 -1.4607,-1.46072 -3.5035,-1.7704 -7.5714,-1.14778 -6.1544,0.94195 -7.8226,1.85322 -5.1402,2.80772 1.3052,0.4644 1.0086,1.43207 -1.1396,3.71876 -3.2023,3.40868 -2.7787,5.25508 1.46,6.36353 2.0438,0.53447 2.597,0.22007 2.0626,-1.17239 -1.2131,-3.16146 1.6392,-2.13502 3.9755,1.43062 2.5196,3.84543 6.0679,4.2857 9.2107,1.14285 2.0123,-2.01224 2.0161,-2.36483 0.047,-4.33333 -1.8921,-1.89154 -2.2971,-1.90829 -3.4539,-0.14286 -1.134,1.7307 -1.5733,1.65567 -3.2625,-0.55727 -1.3808,-1.80889 -1.5463,-3.04617 -0.5656,-4.22786 1.0993,-1.32462 2.2556,-1.20922 5.5832,0.55728 2.3082,1.22532 5.0377,2.99857 6.0656,3.94054 1.5015,1.37616 2.2995,1.38403 4.0608,0.0401 4.9179,-3.75251 6.7915,-6.37656 6.0089,-8.41586 -0.6632,-1.72832 -0.1774,-1.97756 2.5299,-1.29805 3.3766,0.84747 7.428,-2.11353 10.4325,-7.6246 1.3068,-2.39709 -0.6409,-4.7954 -2.0469,-2.52044 -1.2694,2.05389 -8.6485,5.32058 -9.3725,4.14915 -0.3651,-0.59078 0.2296,-1.8156 1.3215,-2.72181 2.5874,-2.14731 2.5306,-4.82659 -0.1237,-5.84517 -3.3398,-1.28158 -4.7956,-0.94915 -3.7547,0.85735 0.5282,0.91667 -0.525,0.31667 -2.3405,-1.33333 -1.8156,-1.65 -3.9442,-3 -4.7304,-3 -1.9947,0 -2.866,-7.31713 -1.1477,-9.63825 1.7524,-2.36712 9.6903,-4.0747 10.776,-2.31808 0.4384,0.70931 1.561,1.28966 2.4946,1.28966 1.9886,0 4.9663,-8.71253 3.9145,-11.45344 -1.0219,-2.66292 1.8391,-2.34269 3.3606,0.37616 0.876,1.5653 0.6331,3.21677 -0.7934,5.39378 -1.7369,2.6509 -1.7843,3.64522 -0.3054,6.40861 1.9673,3.6758 1.8621,3.89952 -2.4581,5.2288 -2.4546,0.75523 -3.2441,0.3763 -3.8222,-1.83436 -0.8384,-3.20605 -4.4176,-3.80504 -4.4176,-0.7393 0,1.63374 -0.5383,1.75884 -2.6667,0.61975 -2.2535,-1.20603 -2.6666,-1.01399 -2.6666,1.23951 0,3.40237 4.3125,5.91466 6.4624,3.76475 1.1612,-1.16124 1.5376,-0.98278 1.5376,0.72907 0,2.66103 3.995,3.02606 6.5666,0.6 1.4134,-1.33333 1.8889,-1.33333 2.3778,0 0.3361,0.91667 1.4611,1.66667 2.5,1.66667 1.8551,0 2.5229,2.26617 2.0959,7.11252 -0.2713,3.08011 2.9571,2.2057 3.5724,-0.96756 0.2454,-1.2654 10e-5,-3.31568 -0.545,-4.55618 -0.5451,-1.24049 -0.8571,-2.82164 -0.6933,-3.51365 0.1637,-0.69201 -0.7349,-3.54812 -1.997,-6.34692 -3.032,-6.72371 -1.9674,-7.42315 2.1524,-1.41421 2.6901,3.92361 3.2744,6.32223 3.1467,12.91877 -0.086,4.45531 -0.6053,10.05791 -1.1537,12.45022 -1.0826,4.7233 -3.7379,7.50017 -3.3111,3.46276 0.4333,-4.09998 0.027,-5.81242 -1.3784,-5.81242 -0.7333,0 -1.3333,2.1 -1.3333,4.66667 0,2.56667 0.6642,4.66666 1.4759,4.66666 0.8118,0 1.153,0.84169 0.7583,1.87041 -0.3948,1.02872 0.043,2.91147 0.9739,4.18389 1.3736,1.87844 2.8402,2.14126 7.7994,1.39759 3.3592,-0.50375 6.8821,-1.84901 7.8286,-2.98947 0.9465,-1.14045 3.0841,-2.59184 4.7502,-3.2253 2.1098,-0.80213 2.7965,-1.873 2.2624,-3.52776 -0.582,-1.8029 -0.4544,-1.9384 0.5287,-0.56176 0.7126,0.99785 0.9814,3.01616 0.5972,4.48514 -0.5687,2.17502 -0.2084,2.51537 1.9407,1.83325 1.9617,-0.62262 3.0226,0.004 4.133,2.44112 1.2954,2.84294 2.1225,3.17675 6.2228,2.51137 3.8978,-0.63253 4.7288,-0.35984 4.7288,1.55161 0,1.86361 0.7195,2.13842 3.664,1.39941 4.7354,-1.18851 4.5333,-0.87982 5.3562,-8.181 0.591,-5.24356 0.9672,-5.92135 2.2857,-4.11828 0.8679,1.18705 3.19,2.77111 5.16,3.52012 6.8597,2.60803 7.7837,15.84125 1.0538,15.09205 -1.5691,-0.17469 -2.853,0.30593 -2.853,1.06804 0,1.87319 -8.3573,5.24957 -12.9938,5.24957 -2.0604,0 -4.9297,-0.80673 -6.3762,-1.79273 -1.4465,-0.986 -3.83,-2.11793 -5.2967,-2.51539 -1.4666,-0.39747 -3.8666,-1.20308 -5.3333,-1.79025 -2.2849,-0.91475 -2.4274,-0.77287 -0.9952,0.99119 2.5203,3.10408 0.5982,10.37482 -3.2001,12.10544 -1.7321,0.7892 -3.5968,0.95531 -4.1437,0.36912 -0.5469,-0.58618 -0.2443,-1.33365 0.6723,-1.66103 2.6915,-0.96124 1.7991,-3.48522 -2.4071,-6.80776 -4.3016,-3.39792 -5.0901,-2.48693 -1.8506,2.13807 3.4401,4.91148 0.8613,3.3606 -6.27,-3.77078 -3.7038,-3.70377 -7.4252,-6.48899 -8.2699,-6.18937 -0.9223,0.32719 -1.4099,2.98388 -1.2206,6.65176 0.2682,5.20078 -0.2036,6.51491 -3.1799,8.85603 -5.0108,3.94152 -8.3365,3.52555 -10.0016,-1.25096 -1.5496,-4.44519 -2.474,-4.76152 -6.8183,-2.33334 -8.6005,4.80703 -10.4102,11.12907 -4.3267,15.11511 1.827,1.19712 2.9637,2.75608 2.526,3.46434 -0.4452,0.72025 -2.0939,0.0684 -3.7412,-1.47917 -1.6199,-1.52182 -3.576,-2.76694 -4.3469,-2.76694 -0.9231,0 -1.0471,-1.9349 -0.3631,-5.66667 0.5712,-3.11667 0.8099,-5.89743 0.5303,-6.17947 -1.1088,-1.11883 -8.5937,2.9526 -8.5937,4.67456 0,1.01103 0.5303,1.83824 1.1783,1.83824 0.6481,0 1.0249,1.95 0.8375,4.33334 -0.1875,2.38333 -0.8678,4.14559 -1.5117,3.91612 -0.6439,-0.22946 -1.0161,-1.64542 -0.8272,-3.14658 0.2462,-1.95509 -0.2267,-2.51054 -1.6666,-1.95798 -3.6109,1.38563 -2.3826,-5.26091 1.4344,-7.76193 2.9088,-1.90592 7.222,-9.17625 7.222,-12.17348 0,-0.48188 -1.7452,-0.52711 -3.8783,-0.10049 -3.5183,0.70365 -4.0678,0.30199 -5.9198,-4.32658 -1.7344,-4.33453 -4.2909,-6.78242 -7.0836,-6.78242 -0.3649,0 -0.2655,1.81216 0.221,4.02703 l 0.8844,4.02702 -4.2702,-3.90026 c -3.5105,-3.20639 -5.4652,-3.90952 -10.987,-3.95229 -3.6942,-0.0286 -7.0729,-0.57252 -7.5083,-1.20868 -0.9841,-1.43801 -6.7915,-1.47258 -6.7915,-0.0404 0,0.57619 0.6,1.04761 1.3333,1.04761 2.1277,0 1.5413,2.30157 -0.817,3.20652 -1.1827,0.45384 -4.2433,-0.46838 -6.8014,-2.04937 -4.3949,-2.71618 -4.6227,-2.73542 -4.1347,-0.34917 0.2916,1.42597 1.4451,2.36997 2.6497,2.16841 3.613,-0.60452 3.8619,3.3234 0.3563,5.62039 -1.7891,1.17225 -3.2529,3.31753 -3.2529,4.76729 0,1.44976 -0.6188,2.63593 -1.3752,2.63593 -2.317,0 -3.0605,-3.98322 -1.4168,-7.59066 1.9599,-4.30159 0.9985,-5.32725 -2.9919,-3.19169 -1.7122,0.91637 -3.9613,1.52264 -4.9979,1.34728 -2.3954,-0.4052 -6.0014,1.14743 -11.8047,5.08265 -2.5225,1.71057 -5.4037,2.79651 -6.4026,2.41321 -0.9988,-0.3833 -1.4884,-0.16665 -1.0878,0.48144 0.4005,0.64809 -0.1582,1.51851 -1.2416,1.93425 -1.0834,0.41575 -1.6527,1.5825 -1.265,2.59277 0.9693,2.52604 -2.8641,5.42805 -5.7217,4.33148 -1.2865,-0.49368 -5.1685,-1.20286 -8.6267,-1.57595 -6.1331,-0.66169 -6.3344,-0.56614 -8.1963,3.88988 -3.3802,8.08999 0.4181,15.37939 8.3241,15.97493 3.6941,0.27827 1.8348,1.76549 -3.4366,2.74891 -3.6634,0.68342 -4.8067,0.1466 -8.3975,-3.94312 z m 142.7196,-25.06404 c -1.7893,-2.15595 -8.3899,-1.8403 -9.1489,0.43752 -0.4518,1.35584 0.1762,1.65991 2.2879,1.10768 2.1773,-0.56936 2.8556,-0.20032 2.6917,1.46448 -0.4363,4.4312 0.2248,4.8345 2.8191,1.7198 1.7846,-2.14263 2.2229,-3.67795 1.3502,-4.72948 z m -11.6697,-3.96416 c 1.9361,-1.93611 5.3355,-3.88327 7.5543,-4.32702 4.0734,-0.8147 5.7371,-4.47349 2.0341,-4.47349 -1.1,0 -2,-0.9 -2,-2 0,-1.1 -0.6212,-2 -1.3803,-2 -0.9502,0 -0.9491,-0.80565 0,-2.58575 0.9203,-1.71953 0.936,-2.86255 0.047,-3.41202 -1.968,-1.21633 -4.0036,0.46343 -4.0036,3.30385 0,2.69606 -6.0745,4.77643 -10.3034,3.52866 -1.4879,-0.43901 -4.2976,1.00585 -7.5854,3.90064 -5.1427,4.52802 -5.1689,4.59795 -1.7186,4.59795 1.9269,0 4.7269,-1.31313 6.2221,-2.91808 1.4953,-1.60494 2.7186,-2.40219 2.7186,-1.77165 0,0.63053 -1.0047,2.25662 -2.2327,3.61354 -2.0888,2.30809 -3.331,8.50882 -2.1498,10.73095 0.8393,1.5789 8.9504,-2.34386 12.7942,-6.18758 z m -96.7793,-3.02893 c 0.3307,-0.99347 -0.4781,-1.30076 -2.2229,-0.84449 -1.5085,0.39449 -2.7428,1.29128 -2.7428,1.99285 0,1.77012 4.3272,0.76943 4.9657,-1.14836 z m 123.0343,-1.10491 c 0,-1.1 0.7286,-2 1.6191,-2 1.0132,0 0.7673,-0.85173 -0.6572,-2.27619 -1.6908,-1.69085 -2.6633,-1.88908 -3.7815,-0.77086 -0.8279,0.82793 -2.4822,1.19562 -3.6762,0.81708 -1.337,-0.4239 -1.6214,-0.25586 -0.7403,0.43752 0.7869,0.61918 1.818,2.17578 2.2915,3.45911 1.0511,2.84871 4.9446,3.11119 4.9446,0.33334 z m 27.3334,-0.66667 c -0.4533,-0.73333 -1.3887,-1.33333 -2.0787,-1.33333 -0.6901,0 -1.2547,0.6 -1.2547,1.33333 0,0.73333 0.9354,1.33333 2.0787,1.33333 1.1433,0 1.7079,-0.6 1.2547,-1.33333 z m -130,-7.33333 c 0,-1.83334 -0.5359,-3.33334 -1.1907,-3.33334 -1.5551,0 -3.032,3.89439 -2.0683,5.45366 1.4524,2.34999 3.259,1.17459 3.259,-2.12032 z m 41.3333,-6 c 0,-0.73334 -0.6,-1.33334 -1.3333,-1.33334 -0.7334,0 -1.3334,0.6 -1.3334,1.33334 0,0.73333 0.6,1.33333 1.3334,1.33333 0.7333,0 1.3333,-0.6 1.3333,-1.33333 z m 46.6667,-5.41202 c 0,-0.69006 -0.6,-1.25465 -1.3334,-1.25465 -0.7333,0 -1.3333,0.93541 -1.3333,2.07869 0,1.14328 0.6,1.70787 1.3333,1.25465 0.7334,-0.45323 1.3334,-1.38864 1.3334,-2.07869 z m -88,56.888 c 0,-0.28821 0.9,-0.86938 2,-1.29149 1.1,-0.42211 2,-0.1863 2,0.52402 0,0.71032 -0.9,1.29148 -2,1.29148 -1.1,0 -2,-0.2358 -2,-0.52401 z m -23.8948,-25.14265 c -0.069,-2.41715 0.5763,-3.66667 1.8948,-3.66667 1.1302,0 2,1.19393 2,2.74536 0,1.50994 -0.5488,2.40621 -1.2195,1.99169 -0.6707,-0.41451 -1.5233,8e-5 -1.8947,0.92131 -0.3714,0.92124 -0.7227,0.025 -0.7806,-1.99169 z m 63.0842,1.43377 c -0.5472,-0.88535 -0.2849,-1.84638 0.5828,-2.13563 0.8677,-0.28924 1.2318,-1.08552 0.8091,-1.76949 -0.4227,-0.68398 -2.5855,0.0502 -4.8063,1.63153 -3.853,2.74355 -4.2453,2.77615 -8.5731,0.71237 -5.0741,-2.41967 -5.9706,-4.87255 -1.781,-4.87255 1.5149,0 3.9537,-0.64184 5.4195,-1.42632 2.1282,-1.139 2.3463,-1.81046 1.0824,-3.33333 -2.7863,-3.35723 1.1458,-2.23187 6.1484,1.75965 2.7242,2.17372 4.5954,4.85613 4.5954,6.58798 0,3.44967 -2.0614,5.13673 -3.4772,2.84579 z m -3.419,-6.89305 c 0.4005,-2.07996 0.068,-2.2146 -2.318,-0.93778 -3.3724,1.80483 -3.695,4.43435 -0.4678,3.81285 1.275,-0.24553 2.5285,-1.53931 2.7858,-2.87507 z m 12.4502,5.95718 c -1.3319,-0.84428 -1.0113,-1.32881 1.2751,-1.9267 3.4806,-0.9102 4.4967,-0.38306 3.2257,1.67342 -1.0515,1.70143 -2.1213,1.76163 -4.5008,0.25328 z m -153.6059,-2.11308 c -3.9438,-2.14565 -7.0792,-7.3664 -6.4129,-10.67825 0.4026,-2.00109 0.9725,-1.8392 4.2547,1.20865 2.1703,2.01527 3.4731,4.34498 3.0485,5.45147 -0.4602,1.19926 0.6311,2.67721 2.8767,3.89606 1.9901,1.0801 2.7183,1.96382 1.6183,1.96382 -1.1,0 -3.5234,-0.82879 -5.3853,-1.84175 z m 50.533,-7.4601 c -2.4738,-2.15486 -2.5768,-2.44991 -0.4811,-1.37799 4.523,2.31348 6.7389,4.07813 5.1477,4.09952 -0.8354,0.0112 -2.9354,-1.21346 -4.6666,-2.72153 z m -29.7023,-0.77998 c -0.661,-1.72257 -0.4552,-1.86934 0.9668,-0.68926 2.799,2.32304 6.8422,-1.16958 5.6613,-4.89041 -0.7359,-2.31849 -1.9533,-2.8984 -6.0847,-2.8984 -5.2582,0 -7.9363,-1.91925 -5.7411,-4.11438 2.006,-2.00604 11.9421,2.67398 13.654,6.43121 1.2571,2.75902 1.127,3.80971 -0.7249,5.85606 -2.7861,3.07858 -6.6092,3.2295 -7.7314,0.30518 z m 17.7283,-2.6704 c -1.6285,-1.96223 -1.4708,-2.08644 1.5034,-1.18347 4.6813,1.42128 6.4681,3.3758 3.0861,3.3758 -1.5235,0 -3.5888,-0.98655 -4.5895,-2.19233 z m -6.5071,-0.47434 c 0,-0.73333 0.6,-1.33333 1.3334,-1.33333 0.7333,0 1.3333,0.6 1.3333,1.33333 0,0.73333 -0.6,1.33333 -1.3333,1.33333 -0.7334,0 -1.3334,-0.6 -1.3334,-1.33333 z m -37.0666,-1.6 c -2.8759,-2.87588 -1.9148,-6.13598 1.7469,-5.92562 2.1925,0.12597 3.1123,0.80477 2.6666,1.968 -0.3741,0.97665 -0.6802,2.62665 -0.6802,3.66667 0,2.31163 -1.5888,2.43545 -3.7333,0.29095 z m 45.7333,-1.06667 c -1.5913,-2.57469 0.6697,-3.94142 4.0058,-2.42141 1.7841,0.81291 2.9273,1.99029 2.5404,2.61638 -0.9701,1.5696 -5.5398,1.4335 -6.5462,-0.19497 z m -9.2342,-1.49383 c 0.5176,-0.83744 -1.2054,-3.44397 -3.9213,-5.93202 -2.6645,-2.441 -4.8445,-5.36878 -4.8445,-6.50617 0,-1.13739 -0.6354,-2.06797 -1.412,-2.06797 -0.7767,0 -1.0412,-0.6 -0.588,-1.33334 0.4532,-0.73333 -0.4114,-1.33333 -1.9213,-1.33333 -1.531,0 -2.7454,-0.8701 -2.7454,-1.967 0,-1.53966 0.7139,-1.69557 3.2861,-0.71761 2.077,0.78965 3.5786,0.77618 4.081,-0.0366 0.5071,-0.82056 1.6989,-0.80213 3.2928,0.051 1.374,0.73531 4.1876,1.34612 6.2525,1.35735 2.613,0.0142 3.2044,0.36887 1.9453,1.16667 -1.4069,0.89145 -1.4435,1.37214 -0.1648,2.16246 1.106,0.68351 0.2843,1.58802 -2.5095,2.76276 -4.7015,1.97682 -4.5301,4.53796 0.4833,7.22103 3.651,1.95396 5.9454,6.10933 2.6818,4.85696 -1.1083,-0.4253 -2.0151,-0.1921 -2.0151,0.51822 0,0.71031 -0.6355,1.29148 -1.4121,1.29148 -0.7766,0 -0.9965,-0.67222 -0.4888,-1.49383 z m 52.5675,-1.79259 c 0,-0.34086 1.35,-1.33909 3,-2.21829 2.7203,-1.4495 2.8294,-1.39172 1.1701,0.61975 -1.7038,2.06536 -4.1701,3.01079 -4.1701,1.59854 z m -107.4086,-5.38863 0.453,-4.67506 -16.1889,-0.0421 c -14.3021,-0.0372 -18.1867,-0.19599 -26.0777,-1.06618 -1.0389,-0.11457 -1.4385,-0.6583 -0.888,-1.2083 0.5505,-0.55 6.2515,-0.7938 12.6688,-0.54177 9.3561,0.36745 12.0908,0.0352 13.8029,-1.67689 1.2817,-1.28164 2.4617,-1.60683 2.952,-0.81351 1.0653,1.72368 39.404,0.51464 41.2185,-1.29985 2.3727,-2.37263 -1.44,-4.9084 -4.5034,-2.99523 -1.5116,0.94396 -2.8873,1.09518 -3.3374,0.36684 -1.1382,-1.84164 3.7764,-4.01633 7.1078,-3.14515 2.9694,0.77651 5.1388,5.84279 3.5812,8.36311 -0.479,0.77501 -4.2855,1.46069 -8.4589,1.52372 -6.5628,0.0991 -7.0559,0.27349 -3.6499,1.29061 3.5837,1.07016 6.3443,0.86889 13.062,-0.95233 1.2833,-0.34792 2.3333,-1.46425 2.3333,-2.48072 0,-1.48105 0.7928,-1.397 3.9916,0.42318 6.2605,3.56243 5.2848,7.71259 -1.6479,7.00947 -1.6001,-0.16228 -2.0744,0.41233 -1.524,1.84646 0.5463,1.42383 0.016,2.08781 -1.6771,2.10026 -1.3618,0.01 -3.8349,0.38233 -5.4958,0.82736 -2.4021,0.64366 -2.8502,0.36723 -2.1906,-1.35154 1.0674,-2.78163 -0.5829,-2.76105 -3.6846,0.046 -2.304,2.08512 -2.4383,2.01169 -2.4383,-1.33333 0,-3.33712 -0.3629,-3.53881 -6.3333,-3.51957 -7.6307,0.0246 -11.1283,1.718 -8.6555,4.19073 2.5271,2.52712 1.9914,3.78885 -1.6087,3.78885 -2.9289,0 -3.2176,-0.48025 -2.8111,-4.67505 z m 81.4086,-7.32494 c -2.571,-1.10479 -2.5618,-1.14927 0.2547,-1.23962 1.6067,-0.0516 3.2921,0.50628 3.7453,1.23962 0.9747,1.57704 -0.33,1.57704 -4,0 z m 66.4698,0.009 c -3.9525,-1.59475 -5.2031,-3.95105 -1.5965,-3.00788 1.8788,0.49131 2.5659,0.24883 1.9801,-0.69888 -0.4933,-0.79818 -0.2871,-1.8281 0.4582,-2.28872 0.7453,-0.46062 1.3551,-2.60208 1.3551,-4.7588 0,-4.1874 1.1513,-4.90329 3.7333,-2.32131 1.2445,1.24444 1.6,0.95745 1.6,-1.29149 0,-2.03324 0.5987,-2.66175 2.017,-2.1175 1.1093,0.4257 2.8297,0.0995 3.8231,-0.72495 1.3604,-1.12902 2.1976,-1.0272 3.3926,0.4126 1.2908,1.55541 1.1375,1.80365 -0.8231,1.33244 -3.4991,-0.84096 -5.9738,1.26455 -6.2065,5.28045 -0.1117,1.92861 -0.6054,3.50699 -1.0971,3.50751 -0.4918,5.2e-4 -1.2894,1.80094 -1.7726,4.00094 -0.9146,4.16398 -2.0641,4.61208 -6.8636,2.67559 z m -84.3863,-1.39384 c 1.1108,-0.6865 1.127,-1.20029 0.059,-1.86044 -0.8116,-0.50161 -1.4757,-1.56961 -1.4757,-2.37332 0,-0.80371 1.2797,-0.3183 2.8439,1.07869 2.8173,2.51632 2.8353,2.51243 1.9237,-0.41724 -0.8794,-2.82621 -0.7248,-2.89128 3.4895,-1.46873 5.728,1.93355 5.7416,1.95107 3.3659,4.32678 -1.1639,1.16386 -4.0969,1.95003 -6.8843,1.84524 -2.671,-0.10041 -4.1659,-0.60936 -3.3219,-1.13098 z m 37.2499,-1.28175 c 0,-1.71852 0.6752,-2.66382 1.6666,-2.33333 0.9167,0.30555 1.6667,1.35555 1.6667,2.33333 0,0.97778 -0.75,2.02778 -1.6667,2.33333 -0.9914,0.33049 -1.6666,-0.61481 -1.6666,-2.33333 z m 139.5555,0.44444 c -0.4889,-0.48889 -0.8889,-2.58889 -0.8889,-4.66666 0,-4.67778 3.7114,-5.1366 7.4601,-0.92224 2.5331,2.84784 2.5317,2.85053 -0.5007,1 -2.6028,-1.58831 -3.2091,-1.58492 -4.21,0.0236 -0.6431,1.0335 -0.8606,2.6835 -0.4834,3.66666 0.7351,1.91561 0.072,2.34813 -1.3771,0.89869 z m -149.5555,-1.77777 c 0.4532,-0.73334 1.6886,-1.33334 2.7453,-1.33334 2.3393,0 2.4752,-1.57946 0.3213,-3.73333 -1.2444,-1.24445 -0.9481,-1.6 1.3334,-1.6 3.5666,0 3.8057,2.79722 0.495,5.79335 -2.6482,2.39658 -6.2316,3.03588 -4.895,0.87332 z m -103.7418,-0.85264 c -1.2342,-1.23418 0.2521,-3.14736 2.4451,-3.14736 1.1228,0 1.5705,0.80514 1.112,2 -0.8139,2.12079 -2.152,2.55242 -3.5571,1.14736 z m 119.9067,-2.53117 c -0.4477,-1.16675 0.065,-2.37752 1.1907,-2.80932 3.1352,-1.2031 2.2988,-3.14021 -1.3558,-3.14021 -1.8334,0 -3.3695,-0.75 -3.4137,-1.66666 -0.3702,-7.67999 -1.6117,-15.15899 -2.7427,-16.52179 -1.3967,-1.68285 -0.4329,-12.0754 1.5899,-17.14488 0.8229,-2.0621 1.1158,-1.45754 1.2923,2.66667 1.4326,33.48399 1.1032,31.79237 5.7632,29.59318 2.1211,-1.00102 2.7603,-1.89971 1.7815,-2.50468 -2.1594,-1.33454 -0.1589,-2.92011 2.4305,-1.92646 2.2724,0.87199 1.5733,6.00238 -1.0474,7.68632 -0.7262,0.4666 -1.3203,2.4166 -1.3203,4.33333 0,3.77696 -2.8879,4.77085 -4.1682,1.4345 z m -70.6458,-1.54133 c -1.5016,-1.50158 -0.9146,-3.07486 1.1473,-3.07486 1.1,0 2,0.56459 2,1.25464 0,1.6813 -2.0821,2.88546 -3.1473,1.82022 z m 28.4807,-2.33259 c 0,-1.05842 1.3335,-2.85842 2.9633,-4 3.4225,-2.3972 5.0367,-2.63508 5.0367,-0.74227 0,0.73333 -1.2,1.33333 -2.6667,1.33333 -1.7778,0 -2.6667,0.88889 -2.6667,2.66667 0,1.46666 -0.6,2.66666 -1.3333,2.66666 -0.7333,0 -1.3333,-0.86597 -1.3333,-1.92439 z m -38.5269,-0.62765 c -1.4887,-0.94267 -1.3556,-1.28125 0.6667,-1.6955 2.1961,-0.44986 1.9207,-1.07837 -2.1037,-4.8017 -3.2794,-3.03409 -3.9823,-4.28409 -2.4089,-4.28409 1.2218,0 3.1396,1.31066 4.2616,2.91258 2.4042,3.43252 7.782,4.85173 6.5873,1.73842 -0.4188,-1.09138 -1.6629,-1.98433 -2.7647,-1.98433 -1.4915,0 -1.8685,-1.15346 -1.4761,-4.5153 0.394,-3.37498 0.075,-4.34171 -1.264,-3.82795 -0.9852,0.37805 -1.5217,1.38993 -1.1922,2.24864 0.3843,1.00124 -1.0022,1.56127 -3.8653,1.56127 -3.4321,0 -4.143,-0.38729 -3.0743,-1.67492 0.7645,-0.92121 1.0286,-2.25975 0.5868,-2.97454 -0.4417,-0.71478 -0.2026,-1.67077 0.5314,-2.1244 1.3387,-0.82736 0.6915,-10.56367 -0.8702,-13.09047 -0.5119,-0.8283 -0.1523,-0.92707 0.933,-0.25628 1.879,1.16129 1.7023,0.45454 -1.5842,-6.33565 -0.9733,-2.01094 -2.2397,-3.66094 -2.8141,-3.66666 -0.5745,-0.006 -3.2029,-2.16887 -5.841,-4.80698 -3.2593,-3.25925 -5.1086,-4.29177 -5.7701,-3.22154 -0.6953,1.12501 -1.2049,0.97165 -1.7838,-0.53676 -0.4457,-1.16149 -1.9864,-2.11179 -3.4239,-2.11179 -3.3752,0 -12.1368,8.24711 -12.1368,11.4241 0,1.76706 -0.4031,2.0395 -1.4574,0.9851 -2.0283,-2.02829 1.5425,-7.18147 8.1484,-11.75936 4.1359,-2.86619 6.0069,-3.40749 8.9367,-2.58545 2.0381,0.57184 4.2198,0.91989 4.8483,0.77345 0.6284,-0.14645 3.2453,0.97434 5.8152,2.49064 6.8538,4.04385 9.0788,2.67772 11.1982,-6.87577 0.9925,-4.47386 2.567,-9.10593 3.4987,-10.2935 1.4409,-1.83647 1.522,-1.66098 0.5425,1.17412 -0.6333,1.83333 -1.5575,6.48333 -2.0537,10.33333 -0.8447,6.55457 -0.7196,7 1.966,7 2.361,0 2.7037,0.53049 1.9383,3 -0.5114,1.65 -1.2513,4.35 -1.6443,6 -0.9953,4.17922 -3.0422,3.75361 -3.2063,-0.66666 l -0.1362,-3.66667 -1.3522,4.20147 c -0.9213,2.86241 -0.9115,5.41212 0.031,8 l 1.3831,3.79853 0.1053,-3.77778 c 0.1601,-5.74711 3.3716,-3.60461 3.8185,2.54751 0.5936,8.16988 1.3261,9.425 3.7556,6.43493 1.1342,-1.3959 1.625,-1.69529 1.0907,-0.66532 -0.6388,1.23119 -0.4443,1.54679 0.5677,0.92131 0.8467,-0.52325 1.5394,-1.75176 1.5394,-2.73002 0,-2.13804 3.666,-3.76108 5.6816,-2.51538 0.8598,0.5314 0.2736,1.32242 -1.4537,1.96136 -1.6308,0.60329 -2.8946,2.21944 -2.8946,3.70173 0,1.44702 -0.6,3.00177 -1.3333,3.45499 -0.7333,0.45323 -1.3333,0.0686 -1.3333,-0.85464 0,-1.30244 -0.3736,-1.28273 -1.6667,0.088 -1.3333,1.41334 -1.3333,1.88889 0,2.37778 2.0273,0.74334 2.1879,4.66769 0.2695,6.58606 -0.974,0.97399 -0.8876,2.51562 0.2854,5.08996 1.5161,3.32752 1.3759,3.94108 -1.4172,6.20283 -3.5001,2.8342 -4.0574,2.94218 -6.6646,1.29133 z m 165.1935,-0.85998 c 0,-1.14328 0.6098,-1.70182 1.3551,-1.2412 0.7453,0.46062 1.0099,1.39603 0.588,2.07869 -1.143,1.84939 -1.9431,1.50454 -1.9431,-0.83749 z m -100.2198,-0.15188 c -1.2209,-0.32335 -2.5456,-1.43684 -2.9437,-2.47443 -1.1585,-3.01905 1.8489,-9.96633 4.294,-9.91926 1.9985,0.0385 1.989,0.20485 -0.1026,1.79327 -1.9667,1.49356 -2.0646,2.26955 -0.6667,5.28052 0.9014,1.94132 2.6484,3.53435 3.8823,3.54007 2.3552,0.0109 4.4811,-4.40523 3.1542,-6.5522 -0.426,-0.68923 -0.1647,-1.63001 0.5806,-2.09062 1.5548,-0.96095 1.7124,1.19974 0.5217,7.15322 -0.8394,4.19689 -2.6519,4.87647 -8.7198,3.26943 z m 99.0681,-6.10276 c -0.1,-1.28334 -0.8458,-2.33334 -1.6576,-2.33334 -0.8118,0 -1.1475,-0.85613 -0.7459,-1.90251 0.4015,-1.04639 -0.1343,-2.61985 -1.1907,-3.49659 -1.5666,-1.30014 -1.9207,-1.08676 -1.9207,1.15715 0,1.51319 -0.6937,3.17994 -1.5415,3.7039 -2.3903,1.47731 -0.3923,-8.38537 2.23,-11.00767 1.3076,-1.30759 1.8832,-3.31012 1.4332,-4.98638 -0.4136,-1.54067 -0.7602,-3.55123 -0.7702,-4.46789 -0.01,-0.91667 -1.162,-1.66667 -2.5601,-1.66667 -1.8854,0 -2.3617,-0.68868 -1.8444,-2.66667 0.7976,-3.0502 1.8527,-3.33362 4.0881,-1.09817 1.2025,1.20244 2.2435,0.96906 4.4607,-1 l 2.8922,-2.56849 -1.7677,3.33333 c -2.0681,3.89986 -2.7961,21.27078 -0.9888,23.59327 0.6819,0.87631 0.9755,2.97631 0.6524,4.66667 -0.3747,1.96039 -0.6532,2.22839 -0.769,0.74006 z m -175.515,-2.33334 c 0.4533,-0.73333 1.7241,-1.33333 2.8241,-1.33333 1.1,0 1.6292,0.6 1.176,1.33333 -0.4533,0.73334 -1.7241,1.33334 -2.8241,1.33334 -1.1,0 -1.6292,-0.6 -1.176,-1.33334 z M 1434.888,180.278 c -1.4416,-1.73703 -1.4089,-2.04376 0.1934,-1.81401 3.5885,0.51458 5.4227,-0.0334 4.5949,-1.37278 -0.4532,-0.73333 -1.9886,-1.33333 -3.412,-1.33333 -2.1594,0 -2.588,-0.94683 -2.588,-5.71703 0,-4.37261 0.8623,-6.66308 3.6667,-9.74001 2.0167,-2.21264 2.9813,-3.08997 2.1437,-1.94963 -0.8377,1.14033 -1.9552,5.30534 -2.4835,9.25558 l -0.9606,7.18223 3.6522,-0.91663 c 3.0272,-0.7598 3.5092,-0.54418 2.8168,1.26014 -0.4594,1.19723 -0.8353,2.7066 -0.8353,3.35416 0,0.64755 -1.137,1.78587 -2.5266,2.52959 -1.8968,1.01512 -2.9592,0.83107 -4.2617,-0.73828 z m 9.455,-0.39603 c 0,-0.70275 1.2,-1.65859 2.6667,-2.12409 3.5735,-1.13418 3.3975,-3.33333 -0.2667,-3.33333 -1.956,0 -2.489,-0.44436 -1.5997,-1.33361 1.7584,-1.75843 8.5085,1.32184 8.5226,3.88916 0.01,1.03889 -0.3656,1.51282 -0.8253,1.05318 -0.4596,-0.45964 -2.5596,0.0558 -4.6667,1.14535 -2.107,1.08959 -3.8309,1.40609 -3.8309,0.70334 z m -160.0507,-2.88543 c -1.459,-2.72627 -1.43,-2.73139 2.2864,-0.40355 2.0704,1.29679 4.0143,2.53939 4.3198,2.76134 0.3056,0.22195 -0.7233,0.40355 -2.2864,0.40355 -1.5631,0 -3.507,-1.2426 -4.3198,-2.76134 z m 103.4946,1.60696 c -0.5743,-0.92934 -0.6842,-2.04978 -0.2441,-2.48988 1.1933,-1.19328 2.4944,0.56173 1.8499,2.49525 -0.4517,1.3549 -0.7657,1.35385 -1.6058,-0.005 z m 36.5936,-1.2208 c 0.021,-0.52698 1.2314,-4.25815 2.6905,-8.29149 2.517,-6.95774 2.6183,-7.06017 1.9771,-2 -0.3717,2.93334 -0.6824,6.31914 -0.6904,7.52402 -0.01,1.20487 -0.9147,2.53604 -2.0147,2.95815 -1.1,0.42211 -1.9831,0.33631 -1.9625,-0.19068 z m -98.7251,-5.55172 c 0.7294,-2.54357 0.6292,-4.09257 -0.2847,-4.3972 -0.776,-0.25866 -1.5814,-2.06961 -1.7898,-4.02434 -0.3435,-3.22165 -0.1339,-3.40273 2.2411,-1.93614 3.371,2.08166 4.3625,6.10758 2.6279,10.66996 -1.886,4.96071 -4.2316,4.6986 -2.7945,-0.31228 z m 170.6876,-5.40643 c 0,-0.73334 0.6,-1.33334 1.3333,-1.33334 0.7334,0 1.3334,0.6 1.3334,1.33334 0,0.73333 -0.6,1.33333 -1.3334,1.33333 -0.7333,0 -1.3333,-0.6 -1.3333,-1.33333 z m -10.1318,-8.40401 c 0.1236,-5.69478 0.2766,-5.94059 2.4651,-3.96049 2.8732,2.59959 2.8655,2.92873 -0.1614,6.86497 l -2.4355,3.16714 z m -31.7856,-5.70045 c -3.366,-2.46128 -2.253,-3.21771 1.702,-1.15677 1.7149,0.8936 2.6082,1.93974 1.9853,2.32475 -0.623,0.385 -2.2822,-0.14058 -3.6873,-1.16798 z m 24.9174,0.13259 c -3.3144,-1.46623 -4.2637,-5.46501 -1,-4.21263 1.3604,0.52203 2,-0.072 2,-1.85735 0,-3.64953 2.2273,-3.29669 2.9468,0.46681 0.9731,5.09068 -0.471,7.14081 -3.9468,5.60317 z m -99.0919,-4.36146 c -0.05,-0.55 -0.3086,-2.64052 -0.5734,-4.64559 -0.2649,-2.00507 0.077,-3.99048 0.7585,-4.41202 0.6868,-0.42447 1.2401,1.64827 1.2401,4.64558 0,2.97662 -0.3,5.41203 -0.6666,5.41203 -0.3667,0 -0.7081,-0.45 -0.7586,-1 z m 80.0919,-1.58798 c 0,-1.50995 0.6,-2.74536 1.3333,-2.74536 0.7334,0 1.3334,0.86459 1.3334,1.92131 0,1.05672 -0.6,2.29213 -1.3334,2.74536 -0.7333,0.45322 -1.3333,-0.41137 -1.3333,-1.92131 z m -17.3333,-4.61079 c 0,-0.5371 0.6619,-2.2134 1.4709,-3.72512 0.9262,-1.73053 0.9949,-3.05616 0.1855,-3.57901 -0.707,-0.45674 -1.5926,-4.1015 -1.9678,-8.09947 -0.6822,-7.26823 -0.682,-7.26869 1.8074,-4.19444 1.3693,1.69102 2.1575,3.61208 1.7515,4.26903 -0.4061,0.65694 -0.3494,1.82358 0.1258,2.59252 1.5985,2.58643 4.6196,-1.53616 4.8082,-6.56133 0.1382,-3.6813 0.328,-4.04045 0.7945,-1.50341 0.7444,4.04889 2.907,6.89635 4.4931,5.91607 0.6418,-0.39668 0.8499,0.10499 0.4624,1.11483 -0.3875,1.00984 -2.0103,1.791 -3.6062,1.73592 -2.1279,-0.0734 -3.668,1.42442 -5.7751,5.61701 -2.9562,5.88177 -4.5502,8.12995 -4.5502,6.4174 z m 17.6666,-2.17612 c -3.3542,-1.34824 -3.7425,-2.68263 -1.448,-4.97706 1.1803,-1.18038 2.138,-0.87615 4,1.27068 4.0993,4.72658 3.2077,6.0215 -2.552,3.70638 z m 11.0699,-8.70557 c -2.4761,-3.77899 -5.0302,-4.30538 -4.4617,-0.91954 0.2283,1.35931 -0.4431,2.33333 -1.6082,2.33333 -1.1,0 -1.8201,-0.83952 -1.6003,-1.8656 0.2198,-1.02608 -0.019,-2.82608 -0.5316,-4 -0.5122,-1.17392 -0.812,-3.386 -0.6662,-4.91573 0.3269,-3.43109 -3.0822,-6.4724 -6,-5.35271 -1.5195,0.58307 -1.9459,0.25891 -1.4296,-1.08669 0.4047,-1.0547 -0.1285,-2.63497 -1.1849,-3.51171 -2.1591,-1.79194 -2.654,-4.5448 -0.5874,-3.26756 0.7334,0.45323 1.3334,-0.41136 1.3334,-1.92131 0,-2.57938 0.6127,-2.88779 6.6682,-3.35637 1.1009,-0.0852 2.78,-0.63598 3.7314,-1.22397 2.4285,-1.50086 -0.5639,-4.940803 -3.3634,-3.866533 -1.7102,0.6563 -1.9345,0.13904 -1.2031,-2.7752 0.6475,-2.5797 0.3324,-3.79926 -1.1261,-4.35894 -1.1138,-0.42741 -1.7106,-1.28589 -1.3263,-1.90775 0.3843,-0.621852 2.7074,1.06115 5.1624,3.74 l 4.4636,4.87064 2.7999,-5.26695 c 1.54,-2.89682 3.6296,-6.316949 4.6436,-7.600282 1.9831,-2.509651 6.2164,-3.190654 6.2164,-1 0,0.733333 -0.551,1.333333 -1.2246,1.333333 -2.9051,0 -7.3874,10.092989 -7.498,16.883612 -0.098,5.98996 0.3001,7.10332 2.9717,8.32058 2.054,0.93588 3.0843,2.54518 3.0843,4.81769 0,2.9117 -0.5272,3.35607 -3.5931,3.02858 -2.6374,-0.28172 -4.0094,0.43328 -5.1589,2.6884 l -1.5659,3.0722 -0.9188,-3.0722 c -0.8877,-2.96838 -0.958,-2.98209 -2.0807,-0.40553 -1.9681,4.51691 -1.5785,6.25245 1.2051,5.36895 1.405,-0.44592 2.9404,-0.18635 3.4121,0.57681 1.2325,1.99424 3.3668,1.7095 3.3668,-0.44917 0,-1.0102 0.9,-2.58367 2,-3.49659 1.7276,-1.43374 2,-0.83972 2,4.36076 0,7.17719 -2.7242,9.11829 -5.9301,4.22545 z m -3.6254,-15.6035 c -0.2445,-0.31507 0.379,-1.56507 1.3854,-2.77778 1.0293,-1.24014 1.2237,-2.20493 0.4445,-2.20493 -0.762,0 -1.6379,0.75 -1.9464,1.66667 -0.447,1.32797 -0.9687,1.33032 -2.5672,0.0116 -1.1034,-0.91031 -2.4009,-1.26031 -2.8835,-0.77778 -0.4825,0.48253 -0.8773,-0.12268 -0.8773,-1.3449 0,-2.85811 -2.1294,-2.87885 -3.222,-0.0314 -0.4624,1.20496 -0.6766,2.29462 -0.476,2.42147 4.4601,2.8203 11.643,4.97116 10.1425,3.03707 z m 8.9437,-2.22733 c -0.4834,-0.78213 -1.8935,-1.40296 -3.1335,-1.37964 -1.9796,0.0372 -1.9412,0.27959 0.3147,1.98622 2.7401,2.07302 4.2712,1.74352 2.8188,-0.60658 z m -6.0548,-9.02975 c 0,-3.15142 -3.2905,-1.14402 -3.7948,2.31501 -0.4028,2.76338 -0.1913,2.94094 1.6667,1.39897 1.1704,-0.97137 2.1281,-2.64266 2.1281,-3.71398 z m -162.4562,23.6077 c 0,-1.83333 0.3026,-2.58333 0.6725,-1.66666 0.3699,0.91666 0.3699,2.41666 0,3.33333 -0.3699,0.91667 -0.6725,0.16667 -0.6725,-1.66667 z m 0.8154,-7 c -1.5943,-9.70431 22.2957,-38.548393 38.8938,-46.959329 3.7108,-1.880406 6.747,-3.137638 6.747,-2.793847 0,0.34379 -2.85,2.562798 -6.3334,4.931129 -9.7229,6.610618 -17.7357,13.985754 -23.4328,21.567774 -4.9131,6.538833 -11.8388,18.706913 -12.2869,21.587613 -0.1141,0.73333 -0.2988,2.08333 -0.4105,3 -0.3431,2.81573 -2.6549,1.84556 -3.1772,-1.33334 z m 179.3153,-13.71501 c -3.5897,-1.82721 -2.5578,-3.28498 2.3255,-3.28498 1.9555,0 4.0055,-0.45 4.5555,-1 0.55,-0.55 1.7,-1 2.5556,-1 2.9677,0 2.3644,-6.984023 -1.1466,-13.272853 -1.9317,-3.459892 -3.2597,-6.543075 -2.9513,-6.851523 0.3085,-0.308448 2.3799,-0.196997 4.6032,0.247669 3.8891,0.777804 4.0767,1.142302 4.9437,9.605474 0.7634,7.45085 0.5158,9.313293 -1.6177,12.171003 -2.968,3.97532 -9.0566,5.52878 -13.2679,3.38521 z m -67.4355,-1.68746 c -1.429,-1.57902 -1.9527,-3.45885 -1.3798,-4.95199 0.8445,-2.200593 1.0149,-2.160003 1.9892,0.47384 1.5634,4.22633 10.8031,4.14055 12.8576,-0.11937 1.3442,-2.787203 1.4518,-2.810853 1.5166,-0.33334 0.1094,4.17656 -1.4719,5.60369 -7.2847,6.57475 -4.3596,0.72828 -5.8377,0.41268 -7.6989,-1.64389 z m 2.6121,-8.930863 c -0.9018,-2.3501 -4.8511,-2.71192 -4.8511,-0.44444 0,0.85555 -0.3548,1.20077 -0.7885,0.76715 -1.2811,-1.28111 0.859,-6.43647 2.3018,-5.54479 0.7267,0.44916 2.5338,-0.28056 4.0156,-1.6216 2.6688,-2.41523 2.6776,-2.401734 0.9316,1.43017 -1.3852,3.04037 -1.4091,3.98621 -0.1115,4.41874 1.8901,0.63003 2.2535,2.99477 0.4603,2.99477 -0.6549,0 -1.5361,-0.9 -1.9582,-2 z m 22.5506,-7.25776 c -1.2897,-1.425096 -4.0827,-2.972769 -6.2067,-3.439269 -2.1239,-0.466499 -3.8617,-1.324728 -3.8617,-1.907174 0,-2.349391 7.9705,0.845727 10.6541,4.270874 3.2972,4.208339 2.9036,4.931179 -0.5857,1.075569 z m 7.2649,-1.408902 c 0,-1.466667 0.5438,-2.666667 1.2085,-2.666667 0.6647,0 0.8947,1.2 0.5112,2.666667 -0.3836,1.466662 -0.9274,2.666662 -1.2085,2.666662 -0.2812,0 -0.5112,-1.2 -0.5112,-2.666662 z m -26.4112,-2.666667 c -1.299,-3.424374 -0.428,-4.533587 2.9597,-3.769319 1.6534,0.372989 1.6705,0.91763 0.1187,3.769319 l -1.8139,3.333329 z m 34.4112,-0.666667 c -0.9129,-1.099999 -2.6717,-1.999999 -3.9084,-1.999999 -1.2367,0 -3.4132,-0.9331 -4.8367,-2.073555 -2.4822,-1.988595 -2.4645,-2.013554 0.4316,-0.609168 2.4228,1.174901 3.1758,1.057652 3.8093,-0.593112 0.4342,-1.131624 1.3607,-2.057498 2.0589,-2.057498 0.6981,0 0.8985,0.6 0.4453,1.333333 -1.6823,2.722097 1.9258,1.223466 3.9244,-1.630008 1.1416,-1.629838 2.0565,-2.379838 2.0332,-1.666667 -0.023,0.713171 -0.9001,2.429559 -1.9483,3.814195 -1.3713,1.811288 -1.5333,3.213924 -0.5774,5 1.6,2.989608 0.8567,3.240063 -1.4319,0.482479 z m 21.8649,0.448001 c -0.3789,-0.613067 1.2965,-1.152699 3.7231,-1.199182 4.3676,-0.08366 4.3784,-0.09959 1.0787,-1.581091 -1.8333,-0.823116 -4.5088,-1.535085 -5.9456,-1.582151 -1.9818,-0.06492 -2.6253,-1.050931 -2.6666,-4.085576 -0.054,-3.984465 -0.3181,-4.157043 -6.899,-4.512867 -1.6414,-0.08875 -3.1394,-1.281613 -3.5418,-2.820466 -0.3836,-1.466666 -1.4235,-2.666666 -2.311,-2.666666 -0.9573,0 -1.33,1.084798 -0.9163,2.666666 0.4442,1.69896 0.041,2.666667 -1.1116,2.666667 -0.9949,0 -2.2888,0.75 -2.8752,1.666666 -1.405,2.196253 -6.0969,2.560654 -7.3497,0.570831 -0.5439,-0.863957 -0.6623,-2.620831 -0.2629,-3.904164 0.3993,-1.283333 0.086,-2.333333 -0.6971,-2.333333 -0.7828,0 -1.4232,1.16459 -1.4232,2.587977 0,3.751424 -2.712,4.859931 -3.5983,1.470767 -0.4763,-1.82144 -1.4614,-2.604092 -2.686,-2.134154 -1.0636,0.408142 -2.7614,0.742077 -3.7728,0.742077 -1.0115,0 -3.0624,1.313136 -4.5576,2.918081 -1.4953,1.604945 -2.7186,2.411953 -2.7186,1.79335 0,-0.618603 -1.2,-0.03875 -2.6667,1.288568 -2.1867,1.978919 -2.6667,2.053311 -2.6667,0.4133 0,-2.488763 4.2007,-6.413299 6.8646,-6.413299 2.3805,0 7.3723,-5.456383 8.0123,-8.758108 0.8927,-4.604536 3.2699,-3.375634 2.7122,1.402023 -0.6272,5.371773 0.028,5.73906 3.6952,2.071773 2.4213,-2.421221 2.4811,-3.071554 0.7972,-8.666666 -1.7956,-5.966359 -1.7781,-6.049021 1.2856,-6.049021 1.7674,0 4.297,-1.514061 5.8695,-3.513145 2.9407,-3.738456 3.6968,-8.486854 1.3514,-8.486854 -0.7766,0 -1.0249,0.626386 -0.5517,1.391968 1.1256,1.821388 -2.9103,7.941365 -5.2371,7.941365 -0.9933,0 -2.4847,-0.8178 -3.3142,-1.817333 -1.2208,-1.470949 -0.8707,-1.695456 1.8367,-1.177897 2.2125,0.42294 3.3971,0.02252 3.4988,-1.182667 0.085,-1.002157 0.2932,-2.422103 0.4636,-3.155436 0.1703,-0.733333 0.4011,-2.118744 0.5128,-3.078689 0.1117,-0.959946 0.7617,-1.400159 1.4443,-0.978251 0.6827,0.421908 1.6361,0.128183 2.1187,-0.652722 0.6111,-0.988665 1.4444,-0.949392 2.7441,0.129327 1.0267,0.852034 1.5215,2.107555 1.0997,2.790046 -0.4218,0.68249 0.1757,2.679383 1.3277,4.437539 1.9671,3.002289 1.8931,3.436028 -1.2184,7.133839 -3.3749,4.010746 -4.3884,8.218909 -1.9796,8.218909 0.7333,0 1.3333,-0.807007 1.3333,-1.793349 0,-0.986343 1.131,-2.816903 2.5134,-4.067912 2.3837,-2.157298 2.7102,-2.101385 6.3333,1.084548 2.101,1.847511 3.1434,3.378071 2.3165,3.401245 -0.8268,0.02317 -2.2448,-0.851258 -3.151,-1.943184 -2.1445,-2.583882 -4.3518,-1.18507 -3.3099,2.097528 0.5635,1.775394 0.1734,2.554458 -1.2791,2.554458 -2.7126,0 -2.6997,2.147362 0.019,3.190681 3.1595,1.212419 4.1645,1.011966 6.4662,-1.28975 1.9098,-1.909869 2.1717,-1.909869 2.9045,0 0.4431,1.154488 1.8217,2.099068 3.0637,2.099068 3.3893,0 9.0011,2.964586 10.6698,5.636526 1.1679,1.870199 1.0562,2.363474 -0.5353,2.363474 -2.5321,0 -2.6377,2.509976 -0.1459,3.466199 1.767,0.678041 2.5559,9.723688 0.8703,9.978244 -4.6317,0.699476 -6.9645,0.597415 -7.5375,-0.329777 z m 1.352,-11.448 c -0.9271,-5.127842 -1.5232,-6.530458 -2.361,-5.555555 -0.9807,1.141157 0.8183,10.555555 2.0171,10.555555 0.7138,0 0.861,-2.139917 0.3439,-5 z M 1460.343,55.09114 c 0,-1.1 -0.9,-1.999999 -2,-1.999999 -1.1,0 -2,0.899999 -2,1.999999 0,1.1 0.9,2 2,2 1.1,0 2,-0.9 2,-2 z"
       id="path19" /></g><metadata
     id="metadata20"><rdf:RDF><cc:Work
         rdf:about=""><dc:title>downward-spike</dc:title></cc:Work></rdf:RDF></metadata></svg>
